<svg width="487" height="615" viewBox="0 0 487 615" fill="none" xmlns="http://www.w3.org/2000/svg">
<path d="M276.336 94.1935C277.536 94.3391 278.941 94.2234 280.051 94.4597C281.64 94.7974 296.673 100.971 299.634 102.579C300.052 102.803 301.738 103.733 302.16 103.995C311.913 110.155 321.997 116.49 324.5 128.407C342.324 129.259 365.52 131.261 383.698 138.451C376.53 135.826 328.249 127.441 324.515 130.472C323.555 131.254 319.679 151.049 316.132 153.75C341.403 149.822 367.186 146.782 392.803 149.387L395.101 145.977C396.05 147.015 396.566 147.828 397.117 149.106C397.068 149.371 397.148 149.713 397.064 149.849C375.509 154.035 350.805 153.906 332.363 166.852C331.632 167.367 331.278 167.826 330.771 168.23C328.855 169.742 327.753 170.536 325.994 172.365C325.751 172.617 325.432 172.795 325.197 173.054C315.379 183.85 315.125 189.07 310.438 201.845C301.547 226.072 273.158 220.15 253.54 214.184L240.497 209.776C231.873 205.328 226.252 200.304 226.156 200.283C215.452 197.799 212.133 199.196 209.81 210.767C205.959 229.915 214.568 259.753 233.182 268.363C234.99 269.194 237.925 268.561 239.02 269.236C239.306 269.414 240.556 273.227 242.455 274.967C251.72 283.459 259.807 275.763 262.746 276.854C263.488 277.131 266.382 282.502 268.463 283.793C272.281 286.163 279.039 286.596 283.114 284.865C285.625 283.799 288.288 278.737 288.891 278.653C290.551 278.421 291.226 281.82 292.421 282.547C299.816 287.017 307.093 282.285 312.303 277.115C312.898 276.53 312.519 274.526 312.715 274.391C314.115 273.409 321.158 278.406 329.487 269.623C336.864 261.839 336.515 253.889 334.321 243.852C334.469 243.467 314.968 219.497 334.428 242.367C353.887 265.237 354.932 286.526 356.782 303.754C359.224 326.486 360.371 323.629 359.589 334.533C360.543 349.207 358.553 348.996 358.088 355.479C357.576 362.62 357.59 364.262 358.584 369.551C360.398 379.205 360.362 379.704 360.362 379.704L361.181 382.269C361.181 382.269 364.633 397.053 366.731 416.754C368.021 428.877 370.065 444.935 362.872 463.598C357.313 471.22 350.042 469.628 349.759 469.824C298.859 498.734 334.814 489.815 277.359 492.735C276.589 493.164 275.839 509.042 273.347 511.102C268.91 514.762 262.242 510.568 263.155 517.834C262.683 516.502 262.734 514.229 262.06 513.01C261.73 512.418 260.46 512.217 259.866 511.629C258.861 510.639 257.92 509.601 257.106 508.446C256.728 507.792 256.025 506.652 255.78 506.112L253.86 495.483L206.423 491.39C199.851 499.62 190.198 501.853 190.974 514.161L191.613 505.253C188.168 506.625 184.795 507.525 181.051 506.734C180.529 505.466 177.817 503.391 176.912 501.96C176.06 499.121 175.407 495.502 175.336 492.468C175.3 491.003 176.89 486.624 176.542 486.271C176.271 485.99 169.178 484.915 168.787 484.954C166.968 485.122 158.97 499.391 157.486 502.068C155.919 504.801 153.422 507.693 151.646 510.604C147.552 517.052 142.332 523.504 137.578 529.744C130.212 538.529 121.24 548.982 111.833 555.509C105.044 559.068 80.0436 571.523 76.5911 557.46C76.083 555.275 76.4855 551.013 76.3194 550.725C76.0133 550.203 67.8436 555.819 65.7343 556.593C56.15 560.083 41.4931 561.744 33.5484 553.63C32.6805 552.629 31.4542 551.597 30.7891 550.447C28.7894 546.252 29.8207 542.699 30.8973 538.516C31.6322 535.719 34.8257 533.007 36.6837 530.722C43.7512 524.121 50.8421 517.68 58.2352 511.372C62.4908 507.745 66.7251 503.996 70.9749 500.346C78.9659 493.472 87.2912 487.039 94.8619 479.672L106.764 469.704C106.515 466.103 96.8346 453.099 87.847 442.075C75.1059 426.544 68.7154 413.065 77.1874 392.808C86.152 375.161 94.4008 350.619 105.061 337.347C107.446 335.227 109.801 333.217 112.227 331.145C113.293 330.236 114.355 329.275 115.412 328.388L121.782 322.875C142.87 278.724 145.044 254.644 174.624 221.23C215.989 185.668 186.964 151.673 211.043 119.363C211.191 119.172 212.821 117.371 213.485 116.553C214.836 114.889 218.801 109.897 220.014 108.813C220.158 108.681 222.286 107.438 223.146 106.798C226.011 104.653 237.158 98.654 240.238 97.5763C241.302 97.2049 243.041 96.3892 243.316 96.3045C250.55 94.1589 268.79 93.2945 276.329 94.1929L276.336 94.1935ZM266.507 158.409C274.628 171.184 291.208 171.813 302.472 162.509C326.827 142.398 294.402 103.271 270.387 125.108C269.118 125.927 268.933 126.324 267.998 127.175C261.924 132.732 260.541 149.943 262.477 152.635C264.712 155.741 264.857 156.202 266.507 158.409Z" fill="#181927"/>
<path d="M312.991 208.005C313.214 208.753 313.323 209.522 313.575 210.286C314.358 212.693 314.581 215.529 316.811 217.234C320.416 226.857 327.891 234.69 334.427 242.375C334.313 242.829 336.188 248.829 336.041 249.214C336.362 250.684 336.809 263.126 329.487 269.63C321.158 278.413 314.114 273.416 312.715 274.398C312.518 274.533 312.89 276.537 312.303 277.122C307.1 282.294 299.823 287.025 292.421 282.555C291.226 281.828 290.551 278.429 288.891 278.661C288.295 278.745 285.632 283.807 283.113 284.873C279.038 286.603 272.281 286.164 268.462 283.801C266.381 282.51 263.488 277.131 262.746 276.862C259.806 275.778 251.712 283.466 242.455 274.975C240.555 273.234 239.305 269.421 239.019 269.244C237.925 268.569 234.989 269.201 233.182 268.37C214.567 259.761 205.958 229.923 209.81 210.775C212.14 199.211 215.452 197.807 226.155 200.29C234.966 206.056 243.402 211.107 253.539 214.192C273.157 220.157 301.546 226.079 310.437 201.853C311.856 203.111 312.418 206.099 312.984 208.005L312.991 208.005ZM226.159 215.983C223.909 215.8 220.562 230.514 225.143 231.514C230.805 232.748 228.958 216.214 226.159 215.983ZM313.73 223.751C311.029 223.923 311.326 238.436 317.193 236.61C322.143 235.07 315.306 223.648 313.73 223.751ZM248.054 223.515C245.374 223.606 242.279 231.257 244.311 234.372C249.162 241.824 252.831 223.349 248.054 223.515ZM293.623 228.265C292.907 228.766 288.762 241.483 294.557 241.07C300.352 240.657 296.532 226.227 293.623 228.265ZM272.59 229.743C269.517 227.493 264.3 239.118 269.31 241.327C274.834 243.76 273.952 230.743 272.59 229.743ZM235.565 255.333C238.015 254.076 238.226 241.122 234.081 241.959C229.254 242.934 228.54 258.941 235.565 255.333ZM308.328 247.228C304.915 247.961 306.266 261.101 311.017 260.054C316.056 258.937 311.271 246.595 308.328 247.228ZM258.476 244.416C256.714 244.208 250.096 257.658 255.955 259.175C263.059 261.02 259.905 244.586 258.476 244.416ZM282.906 247.645C280.135 248.065 278.051 262.236 283.312 262.613C289.59 263.063 285.647 247.222 282.906 247.645Z" fill="#FDB517"/>
<path d="M312.991 208.005C313.214 208.753 313.323 209.522 313.575 210.286C314.358 212.693 314.581 215.529 316.811 217.234C320.416 226.857 327.891 234.69 334.427 242.375C334.313 242.829 336.188 248.829 336.041 249.214C336.362 250.684 336.809 263.126 329.487 269.63C321.158 278.413 314.114 273.416 312.715 274.398C312.518 274.533 312.89 276.537 312.303 277.122C307.1 282.294 299.823 287.025 292.421 282.555C291.226 281.828 290.551 278.429 288.891 278.661C288.295 278.745 285.632 283.807 283.113 284.873C279.038 286.603 272.281 286.164 268.462 283.801C266.381 282.51 263.488 277.131 262.746 276.862C259.806 275.778 251.712 283.466 242.455 274.975C240.555 273.234 239.305 269.421 239.019 269.244C237.925 268.569 234.989 269.201 233.182 268.37C214.567 259.761 205.958 229.923 209.81 210.775C212.14 199.211 215.452 197.807 226.155 200.29C234.966 206.056 243.402 211.107 253.539 214.192C273.157 220.157 301.546 226.079 310.437 201.853C311.856 203.111 312.418 206.099 312.984 208.005L312.991 208.005ZM226.159 215.983C223.909 215.8 220.562 230.514 225.143 231.514C230.805 232.748 228.958 216.214 226.159 215.983ZM313.73 223.751C311.029 223.923 311.326 238.436 317.193 236.61C322.143 235.07 315.306 223.648 313.73 223.751ZM248.054 223.515C245.374 223.606 242.279 231.257 244.311 234.372C249.162 241.824 252.831 223.349 248.054 223.515ZM293.623 228.265C292.907 228.766 288.762 241.483 294.557 241.07C300.352 240.657 296.532 226.227 293.623 228.265ZM272.59 229.743C269.517 227.493 264.3 239.118 269.31 241.327C274.834 243.76 273.952 230.743 272.59 229.743ZM235.565 255.333C238.015 254.076 238.226 241.122 234.081 241.959C229.254 242.934 228.54 258.941 235.565 255.333ZM308.328 247.228C304.915 247.961 306.266 261.101 311.017 260.054C316.056 258.937 311.271 246.595 308.328 247.228ZM258.476 244.416C256.714 244.208 250.096 257.658 255.955 259.175C263.059 261.02 259.905 244.586 258.476 244.416ZM282.906 247.645C280.135 248.065 278.051 262.236 283.312 262.613C289.59 263.063 285.647 247.222 282.906 247.645Z" fill="url(#paint0_radial_3065_102037)" fill-opacity="0.44"/>
<path d="M312.991 208.005C313.214 208.753 313.323 209.522 313.575 210.286C314.358 212.693 314.581 215.529 316.811 217.234C320.416 226.857 327.891 234.69 334.427 242.375C334.313 242.829 336.188 248.829 336.041 249.214C336.362 250.684 336.809 263.126 329.487 269.63C321.158 278.413 314.114 273.416 312.715 274.398C312.518 274.533 312.89 276.537 312.303 277.122C307.1 282.294 299.823 287.025 292.421 282.555C291.226 281.828 290.551 278.429 288.891 278.661C288.295 278.745 285.632 283.807 283.113 284.873C279.038 286.603 272.281 286.164 268.462 283.801C266.381 282.51 263.488 277.131 262.746 276.862C259.806 275.778 251.712 283.466 242.455 274.975C240.555 273.234 239.305 269.421 239.019 269.244C237.925 268.569 234.989 269.201 233.182 268.37C214.567 259.761 205.958 229.923 209.81 210.775C212.14 199.211 215.452 197.807 226.155 200.29C234.966 206.056 243.402 211.107 253.539 214.192C273.157 220.157 301.546 226.079 310.437 201.853C311.856 203.111 312.418 206.099 312.984 208.005L312.991 208.005ZM226.159 215.983C223.909 215.8 220.562 230.514 225.143 231.514C230.805 232.748 228.958 216.214 226.159 215.983ZM313.73 223.751C311.029 223.923 311.326 238.436 317.193 236.61C322.143 235.07 315.306 223.648 313.73 223.751ZM248.054 223.515C245.374 223.606 242.279 231.257 244.311 234.372C249.162 241.824 252.831 223.349 248.054 223.515ZM293.623 228.265C292.907 228.766 288.762 241.483 294.557 241.07C300.352 240.657 296.532 226.227 293.623 228.265ZM272.59 229.743C269.517 227.493 264.3 239.118 269.31 241.327C274.834 243.76 273.952 230.743 272.59 229.743ZM235.565 255.333C238.015 254.076 238.226 241.122 234.081 241.959C229.254 242.934 228.54 258.941 235.565 255.333ZM308.328 247.228C304.915 247.961 306.266 261.101 311.017 260.054C316.056 258.937 311.271 246.595 308.328 247.228ZM258.476 244.416C256.714 244.208 250.096 257.658 255.955 259.175C263.059 261.02 259.905 244.586 258.476 244.416ZM282.906 247.645C280.135 248.065 278.051 262.236 283.312 262.613C289.59 263.063 285.647 247.222 282.906 247.645Z" fill="url(#paint1_radial_3065_102037)" fill-opacity="0.44"/>
<path d="M312.991 208.005C313.214 208.753 313.323 209.522 313.575 210.286C314.358 212.693 314.581 215.529 316.811 217.234C320.416 226.857 327.891 234.69 334.427 242.375C334.313 242.829 336.188 248.829 336.041 249.214C336.362 250.684 336.809 263.126 329.487 269.63C321.158 278.413 314.114 273.416 312.715 274.398C312.518 274.533 312.89 276.537 312.303 277.122C307.1 282.294 299.823 287.025 292.421 282.555C291.226 281.828 290.551 278.429 288.891 278.661C288.295 278.745 285.632 283.807 283.113 284.873C279.038 286.603 272.281 286.164 268.462 283.801C266.381 282.51 263.488 277.131 262.746 276.862C259.806 275.778 251.712 283.466 242.455 274.975C240.555 273.234 239.305 269.421 239.019 269.244C237.925 268.569 234.989 269.201 233.182 268.37C214.567 259.761 205.958 229.923 209.81 210.775C212.14 199.211 215.452 197.807 226.155 200.29C234.966 206.056 243.402 211.107 253.539 214.192C273.157 220.157 301.546 226.079 310.437 201.853C311.856 203.111 312.418 206.099 312.984 208.005L312.991 208.005ZM226.159 215.983C223.909 215.8 220.562 230.514 225.143 231.514C230.805 232.748 228.958 216.214 226.159 215.983ZM313.73 223.751C311.029 223.923 311.326 238.436 317.193 236.61C322.143 235.07 315.306 223.648 313.73 223.751ZM248.054 223.515C245.374 223.606 242.279 231.257 244.311 234.372C249.162 241.824 252.831 223.349 248.054 223.515ZM293.623 228.265C292.907 228.766 288.762 241.483 294.557 241.07C300.352 240.657 296.532 226.227 293.623 228.265ZM272.59 229.743C269.517 227.493 264.3 239.118 269.31 241.327C274.834 243.76 273.952 230.743 272.59 229.743ZM235.565 255.333C238.015 254.076 238.226 241.122 234.081 241.959C229.254 242.934 228.54 258.941 235.565 255.333ZM308.328 247.228C304.915 247.961 306.266 261.101 311.017 260.054C316.056 258.937 311.271 246.595 308.328 247.228ZM258.476 244.416C256.714 244.208 250.096 257.658 255.955 259.175C263.059 261.02 259.905 244.586 258.476 244.416ZM282.906 247.645C280.135 248.065 278.051 262.236 283.312 262.613C289.59 263.063 285.647 247.222 282.906 247.645Z" fill="url(#paint2_radial_3065_102037)" fill-opacity="0.44"/>
<path d="M190.974 514.162C187.942 531.674 182.844 549.143 180.497 566.78C179.854 571.584 176.818 580.604 183.439 582.31C193.369 584.865 209.289 577.812 219.309 585.045C220.061 585.591 225.134 593.596 224.805 594.542C223.828 597.33 217.648 591.44 214.951 591.247L200.462 590.208C201.691 593.901 206.975 592.802 208.974 593.99C210.621 594.966 218.73 607.509 213.728 608.307C213.169 608.394 206.391 602.52 204.629 601.573C196.929 597.402 188.4 595.53 180.534 591.795C183.637 597.271 193.231 602.518 189.1 611.288C187.347 615.02 179.157 602.569 175.658 602.616C175.423 602.361 175.204 602.076 174.969 601.821C171.661 598.263 169.166 593.794 165.311 590.682C165.212 590.608 165.802 589.351 164.961 589.105C162.328 588.326 151.66 590.248 147.882 588.664L136.976 590.151C134.527 590.356 124.015 593.528 123.692 592.93C123.191 591.999 126.087 586.401 126.97 585.442C133.055 578.797 153.724 582.501 162.335 580.417C165.732 579.594 164.391 579.027 165.472 578.008C169.371 574.362 168.079 571.434 169.296 566.342C169.404 565.873 169.294 565.328 169.402 564.858C172.905 549.737 177.81 531.739 180.157 517.543C180.265 516.871 181.245 507.248 181.035 506.741C184.78 507.532 188.153 506.632 191.59 505.259L190.952 514.167L190.974 514.162Z" fill="#4A505A"/>
<path d="M273.344 511.11C277.511 527.691 280.823 544.524 284.694 561.173C286.577 569.285 286.648 583.513 294.774 587.266C295.044 587.457 295.234 587.934 295.463 588.062C301.63 591.436 309.521 589.808 316.215 590.295C328.103 591.162 339.284 589.27 344.424 603.114L331.486 599.702L315.683 597.727C324.123 600.839 332.091 603.768 332.424 614.231L331.222 615.272L296.158 599.312C300.74 606.976 306.194 606.434 302.995 618.45C302.524 618.357 301.963 618.466 301.509 618.344C299.63 612.247 292.736 610.283 288.136 606.938C287.969 606.77 285.949 603.692 285.43 603.013C284.371 601.632 283.874 601.066 282.67 599.831C282.427 599.582 282.233 599.27 281.981 599.035C281.725 598.427 281.243 597.654 280.601 597.444C280.389 597.376 280.088 597.415 279.858 597.391L252.259 596.905C250.533 596.923 243.558 598.065 243.245 597.744C242.179 596.668 249.333 590.524 250.743 589.931C256.88 587.349 273.495 589.883 276.529 586.728C280.306 582.797 276.49 575.808 275.723 571.723C274.913 567.389 273.836 563.141 272.912 558.836C270.226 546.287 267.333 529.648 263.153 517.842C262.24 510.575 268.907 514.769 273.344 511.11Z" fill="#4A505A"/>
<path d="M78.9128 24.8268C78.3355 27.0464 79.9469 26.341 81.3698 26.4952C104.976 29.1271 125.866 33.9149 147.8 43.195C163.74 50.6652 181.133 60.172 194.288 71.8975C194.38 71.9787 194.251 73.3648 195.187 74.2602C196.04 75.075 197.629 74.9874 197.791 75.1333C204.969 81.8935 216.187 95.2336 221.882 103.723C222.327 104.403 222.48 104.667 223.155 106.799C222.295 107.439 220.167 108.682 220.023 108.813C210.464 92.9729 197.348 78.7058 182.666 67.3336C173.92 60.5581 162.598 53.583 152.629 48.7645C123.354 32.9066 87.3346 24.8632 54.0735 27.524C40.3117 28.6347 46.8956 28.1588 41.1544 35.5303C37.552 40.1524 31.2728 40.0233 26.4731 37.4855C26.3957 37.4202 25.2023 36.0438 25.0935 35.8942C21.9456 29.9004 23.4616 22.7111 30.4836 20.8116C38.6251 18.6116 40.4518 25.4286 43.2084 25.835C51.3599 27.0385 68.0427 24.0403 78.9128 24.8268Z" fill="#3B2B2D"/>
<path d="M159.857 77.1113C160.621 77.3937 161.257 77.5537 162.033 78.0134C180.034 84.6537 198.105 94.2838 213.032 106.293C214.445 107.42 215.581 108.634 217.914 111.12C217.424 111.725 216.398 115.855 215.156 114.56C199.77 98.6761 177.874 85.8719 157.094 78.4579C133.769 70.1303 112.897 66.6646 88.102 67.492C82.053 67.6928 75.3284 68.3601 69.3134 69.1304C59.9439 70.332 54.1268 71.3628 45.0575 74.1081C41.4998 75.1889 25.3499 80.6504 23.493 82.5918C20.3287 85.8946 22.6115 91.9757 19.2253 95.3521C11.0541 103.49 -4.3604 91.9158 3.66722 81.8203C9.3957 74.6269 16.3373 81.0418 20.9028 80.5929C22.7833 80.4068 33.8481 74.6182 37.6267 73.5831C79.2761 62.151 118.854 62.644 159.856 77.1187L159.857 77.1113Z" fill="#3B2B2D"/>
<path d="M105.324 9.95831C107.484 10.7698 115.745 10.9663 119.175 11.7717C134.099 15.2887 148.228 19.6816 161.911 26.6616C169.044 30.2994 180.871 37.527 186.906 42.6307C191.899 46.8464 202.073 58.0672 206.328 63.4239C212.2 70.7477 217.66 81.2103 221.555 90.6324C223.477 95.2922 224.906 100.364 226.489 105.164C226.214 105.249 224.475 106.064 223.41 106.436C222.055 103.162 220.626 99.7413 219.644 96.4651C216.53 86.1408 210.14 76.5492 204.469 68.5142C203.265 66.7804 202.611 64.6449 201.126 63.0512C198.379 60.1232 196.122 57.111 193.538 54.2991C183.88 43.7944 168.488 34.0107 155.582 27.9669C148.562 24.9109 150.683 25.533 149.409 24.9716C143.227 22.2303 110.114 9.81069 106.347 13.8016C106.137 14.0254 103.046 17.0482 102.787 17.9475C102.125 18.4299 101.5 19.1239 101.195 19.3258C91.307 25.154 78.9019 13.2734 86.6019 4.10211C88.162 2.23647 94.3279 1.13366 96.9762 1.69655C102.067 2.76515 102.65 8.94102 105.324 9.95831Z" fill="#3B2B2D"/>
<path d="M427.157 23.6011C427.953 20.4859 437.372 17.1274 441.633 21.1009C445.794 25.0722 446.636 32.7995 442.187 36.6021C437.627 39.79 429.706 39.3343 426.69 33.9992C425.881 32.3867 426.383 29.4464 424.78 29.3851C409.665 26.8692 392.295 29.9674 377.555 33.9928C368.272 36.4964 359.362 42.2199 350.367 46.4388C346.946 48.104 344.108 50.4004 341.768 51.7923C340.341 52.4213 341.768 51.7923 337.84 54.4956C325.786 62.5117 321.535 66.0873 312.307 77.2908C306.5 84.3367 300.057 92.7622 296.803 101.484C295.692 101.247 294.322 100.455 293.515 99.8228L314.432 68.4885C314.702 68.2617 314.951 68.0109 315.228 67.7994C315.378 67.6833 316.471 66.4455 317.67 64.9896C333.197 51.472 350.544 40.3101 369.814 33.4381C382.812 30.1758 402.587 26.5691 409.483 26.5895C417.062 26.6119 426.621 27.198 427.157 23.6011Z" fill="#3B2B2D"/>
<path d="M464.384 54.6887C466.758 55.0229 468.855 56.494 471.988 55.8156C474.044 55.3735 475.49 52.1863 480.054 52.2746C492.151 52.5072 491.488 69.2643 484.868 71.0807C484.647 71.1395 484.36 70.9772 484.125 71.0275C474.329 73.079 470.768 68.3615 470.009 59.569C470 59.4863 471.265 58.6143 470.851 58.1444C470.54 57.7863 463.001 56.2685 461.654 56.0004C436.421 51.0581 405.823 52.8203 381.099 59.5404C379.903 59.8651 378.485 59.2263 378.775 61.2319C370.405 63.3782 364.547 65.3015 356.588 68.5965C343.204 74.1294 328.23 83.4063 317.521 92.6605C311.66 95.2477 307.002 99.8015 302.499 104.27C302.077 104.008 300.051 102.796 299.634 102.572C299.961 102.177 300.155 101.445 300.483 101.14C301.802 99.9289 302.987 99.2377 304.464 97.6944C307.94 94.6235 307.912 94.703 310.038 92.8704C310.754 92.2576 311.786 91.2943 312.427 90.803C316.063 88.0041 322.843 83.0128 326.599 80.6254C338.376 73.1417 352.883 66.6296 366.037 61.8115C397.99 52.2888 431.292 49.3697 464.385 54.6813L464.384 54.6887Z" fill="#3B2B2D"/>
<path d="M25.092 35.894C21.3373 30.7597 20.3029 24.5591 27.3307 20.3915C37.4317 14.3995 38.9673 22.7775 44.2348 23.8937C48.6929 24.84 60.2805 22.2826 65.987 22.3781C112.804 23.1437 160.343 41.5715 194.287 71.8973C195.579 73.0495 196.558 73.9703 197.789 75.1331C206.873 83.6565 216.4 92.1371 221.88 103.723C216.185 95.2334 204.968 81.8933 197.789 75.1331C197.635 74.9878 196.038 75.0748 195.186 74.26C194.249 73.3646 194.378 71.9859 194.287 71.8973C181.131 60.1718 163.739 50.665 147.799 43.1948C125.536 32.7569 103.571 26.6086 78.9113 24.8266C68.0413 24.0401 51.351 27.0378 43.2069 25.8348C40.4503 25.4283 38.6236 18.6114 30.4822 20.8114C23.4601 22.7109 21.9516 29.9008 25.092 35.894Z" fill="#3B2B2D"/>
<path d="M152.627 48.7641C140.839 43.0616 128.214 38.6347 115.477 35.655C115.234 35.6003 114.977 35.6564 114.734 35.6017C96.8324 30.073 72.8138 26.0087 54.0714 27.5235C87.3325 24.8627 123.352 32.9061 152.627 48.7641Z" fill="#181927"/>
<path d="M445.492 360.027L453.77 369.574C451.15 366.327 448.254 363.172 445.492 360.027Z" fill="#ECE8E2"/>
<path d="M51.5799 322.844C49.1535 324.916 46.7988 326.926 44.4138 329.046L51.5799 322.844Z" fill="#ECE8E2"/>
<path d="M70.9745 500.339C66.7247 503.989 62.4903 507.738 58.2347 511.365L70.9745 500.339Z" fill="#ECE8E2"/>
<path d="M54.7658 320.087C56.9119 318.278 58.9524 316.38 61.1357 314.574L54.7658 320.087Z" fill="#ECE8E2"/>
<path d="M326.001 172.374C327.76 170.545 328.863 169.751 330.779 168.239L326.001 172.374Z" fill="#ECE8E2"/>
<path d="M270.047 124.829C289.57 112.304 314.283 126.183 309.534 149.625C305.524 169.425 276.755 174.934 265.312 159.63C263.663 157.422 262.356 155.961 261.568 153.405C258.481 143.334 258.908 137.046 267.658 126.896C268.593 126.045 268.778 125.648 270.047 124.829ZM282.253 132.762C271.167 134.676 270.464 154.058 283.929 156.321C302.934 158.235 302.557 129.262 282.253 132.762Z" fill="#33ABE7"/>
<path d="M383.697 138.452C385.742 139.203 386.964 140.081 388.739 141.052C390.406 141.962 393.002 143.887 394.417 145.189C394.669 145.424 394.871 145.729 395.107 145.985L392.809 149.395C367.192 146.79 341.409 149.831 316.138 153.758C319.685 151.057 323.561 131.262 324.521 130.48C328.256 127.442 376.528 135.834 383.704 138.46L383.697 138.452Z" fill="#202A3B"/>
<path d="M469.128 105.368C468.539 105.735 467.673 105.941 466.978 105.214C421.276 85.231 350.097 91.7436 304.195 105.289L309.451 109.198C309.451 109.198 334.406 99.6791 370.385 96.7695C406.365 93.8599 462.892 103.467 464.945 108.053C465.562 109.448 463.583 118.201 467.347 120.91C471.621 123.535 478.76 123.481 482.367 119.748C484.733 109.971 484.934 104.568 473.365 104.149C470.922 104.056 471.214 104.068 469.128 105.368Z" fill="#3B2B2D"/>
<path d="M270.386 125.108C294.409 103.272 326.826 142.398 302.472 162.509C291.207 171.813 274.619 171.192 266.506 158.41C277.942 173.713 304.923 169.677 308.94 149.884C313.689 126.451 289.91 112.583 270.386 125.108Z" fill="#38C6F1"/>
<path d="M210.889 121.59C211.013 121.42 210.818 121.018 210.942 120.848L210.889 121.59Z" fill="#3B2B2D"/>
<path d="M235.564 255.334C228.539 258.942 229.253 242.935 234.08 241.96C238.226 241.123 238.022 254.07 235.564 255.334Z" fill="#F38C14"/>
<path d="M282.905 247.645C285.653 247.23 289.589 263.07 283.311 262.613C278.043 262.235 280.126 248.065 282.905 247.645Z" fill="#F38C14"/>
<path d="M258.476 244.416C259.905 244.586 263.059 261.027 255.955 259.175C250.096 257.651 256.714 244.201 258.476 244.416Z" fill="#F38913"/>
<path d="M226.158 215.983C228.957 216.214 230.805 232.748 225.142 231.514C220.561 230.514 223.908 215.8 226.158 215.983Z" fill="#F38913"/>
<path d="M308.328 247.228C311.271 246.596 316.055 258.937 311.016 260.054C306.265 261.109 304.907 247.968 308.328 247.228Z" fill="#F38913"/>
<path d="M248.054 223.514C252.83 223.357 249.161 241.824 244.311 234.372C242.279 231.249 245.374 223.598 248.054 223.514Z" fill="#F38C14"/>
<path d="M313.73 223.751C315.314 223.648 322.142 235.077 317.193 236.61C311.326 238.436 311.03 223.923 313.73 223.751Z" fill="#F38913"/>
<path d="M272.589 229.743C273.959 230.744 274.834 243.76 269.309 241.327C264.292 239.117 269.517 227.493 272.589 229.743Z" fill="#F38913"/>
<path d="M293.744 227.869C297.062 225.838 301.218 240.952 294.909 241.294C288.263 241.658 292.937 228.363 293.744 227.869Z" fill="#F38913"/>
<path d="M279.86 597.391C272.033 596.568 260.401 596.817 252.262 596.905L279.86 597.391Z" fill="#202A3B"/>
<path d="M285.431 603.013L282.672 599.831C283.875 601.066 284.373 601.632 285.431 603.013Z" fill="#202A3B"/>
<path d="M281.981 599.035C281.457 598.535 280.759 598.276 280.602 597.444C281.244 597.654 281.726 598.427 281.981 599.035Z" fill="#202A3B"/>
<path d="M147.798 43.1945C125.863 33.9217 104.973 29.1265 81.3675 26.4947C79.9451 26.3331 78.3332 27.0459 78.9105 24.8262C103.571 26.6083 125.535 32.7566 147.798 43.1945Z" fill="#181927"/>
<path d="M159.858 77.1105C118.855 62.6358 79.2775 62.1427 37.6281 73.5749C76.5324 59.6999 121.673 60.9275 159.858 77.1105Z" fill="#181927"/>
<path d="M378.775 61.2395C378.486 59.2264 379.903 59.8727 381.099 59.548C405.824 52.8205 436.422 51.0582 461.654 56.0079C463.002 56.2687 470.541 57.7939 470.851 58.1519C471.258 58.6214 470 59.4939 470.009 59.5766C440.036 51.8993 408.515 53.6252 378.774 61.2469L378.775 61.2395Z" fill="#181927"/>
<path d="M464.386 54.6888C431.293 49.3773 397.991 52.2964 366.038 61.8191C401.226 48.939 427.704 49.5306 464.386 54.6888Z" fill="#181927"/>
<path d="M282.372 132.101C302.676 128.601 303.273 158.515 284.268 156.601C269.624 155.126 271.286 134.015 282.372 132.101Z" fill="#181927"/>
<defs>
<radialGradient id="paint0_radial_3065_102037" cx="0" cy="0" r="1" gradientUnits="userSpaceOnUse" gradientTransform="translate(243.302 265.715) rotate(118.82) scale(23.3605 24.6246)">
<stop offset="0.307692" stop-color="#3FCDBE"/>
<stop offset="1" stop-color="#20675F" stop-opacity="0"/>
</radialGradient>
<radialGradient id="paint1_radial_3065_102037" cx="0" cy="0" r="1" gradientUnits="userSpaceOnUse" gradientTransform="translate(236.351 208.202) rotate(29.8757) scale(56.603 59.601)">
<stop offset="0.307692" stop-color="#3FCDBE"/>
<stop offset="1" stop-color="#20675F" stop-opacity="0"/>
</radialGradient>
<radialGradient id="paint2_radial_3065_102037" cx="0" cy="0" r="1" gradientUnits="userSpaceOnUse" gradientTransform="translate(330.612 247.719) rotate(-125.939) scale(44.8993 46.9807)">
<stop offset="0.307692" stop-color="#3FCDBE"/>
<stop offset="1" stop-color="#20675F" stop-opacity="0"/>
</radialGradient>
</defs>
</svg>
