<svg width="121" height="121" viewBox="0 0 121 121" fill="none" xmlns="http://www.w3.org/2000/svg">
<path d="M119.157 46.2942C112.716 19.7254 88.965 0 60.3834 0H58.3706V46.2942H119.157ZM30.1915 8.05116C16.102 16.3036 5.63545 29.9906 1.60986 46.2942H30.1915V8.05116ZM1.60986 74.4733C5.63545 90.7769 16.102 104.464 30.1915 112.716V74.4733H1.60986ZM58.3706 120.767H60.3834C88.965 120.767 112.716 101.042 119.157 74.4733H58.3706V120.767Z" fill="#ED4C5C"/>
<path d="M119.157 46.2942H58.3709V0C48.1057 0.402558 38.4443 3.22047 30.1919 8.05116V46.2942H1.61023C0.603837 50.7223 0 55.553 0 60.3837C0 65.2144 0.603837 70.0451 1.61023 74.4733H30.1919V112.716C38.4443 117.547 48.1057 120.365 58.3709 120.767V74.4733H119.157C120.164 70.0451 120.767 65.2144 120.767 60.3837C120.767 55.553 120.164 50.7223 119.157 46.2942Z" fill="white"/>
</svg>
