<svg width="122" height="121" viewBox="0 0 122 121" fill="none" xmlns="http://www.w3.org/2000/svg">
<path d="M41.0238 117.346V89.5693L20.292 104.866C26.1291 110.301 33.1739 114.528 41.0238 117.346ZM81.2796 117.346C89.1295 114.528 96.1742 110.301 102.011 104.866L81.2796 89.368V117.346ZM4.1897 80.5117C4.79353 82.5245 5.59865 84.336 6.60505 86.3488L14.4549 80.5117H4.1897ZM107.848 80.5117L115.698 86.3488C116.503 84.5373 117.309 82.5245 118.114 80.5117H107.848Z" fill="#2A5F9E"/>
<path d="M44.0427 72.4609H1.97534C2.57918 75.2788 3.3843 77.8955 4.18941 80.5121H14.4546L6.60476 86.3492C8.21499 89.7709 10.0265 92.7901 12.2406 95.8093L32.9723 80.5121H41.0235V84.5377L17.4738 101.848L20.2917 104.666L41.0235 89.5697V117.346C43.6401 118.353 46.2567 118.956 49.0746 119.56V72.4609H44.0427ZM120.327 72.4609H73.2281V119.56C76.046 118.956 78.6627 118.151 81.2793 117.346V89.5697L102.011 104.666C104.829 102.049 107.244 99.2311 109.66 96.2119L88.1228 80.5121H101.81L114.088 89.5697C114.692 88.5633 115.295 87.3556 115.698 86.3492L107.848 80.5121H118.113C118.918 77.8955 119.724 75.2788 120.327 72.4609Z" fill="white"/>
<path d="M12.241 95.8089C13.8512 98.023 15.4614 100.036 17.2729 102.049L41.0239 84.7386V80.713H32.9727L12.241 95.8089ZM88.3245 80.5117L109.861 96.2115C110.666 95.2051 111.27 94.1987 112.075 93.1923C112.277 92.991 112.277 92.7897 112.478 92.7897C113.082 91.7833 113.887 90.5757 114.491 89.5693L101.81 80.5117H88.3245Z" fill="#ED4C5C"/>
<path d="M81.2796 3.42188V31.1984L102.011 15.9012C96.1742 10.4666 89.1295 6.23978 81.2796 3.42188ZM41.0238 3.42188C33.1739 6.23978 26.1291 10.4666 20.292 15.9012L41.0238 31.3997V3.42188ZM118.114 40.2559C117.51 38.2432 116.705 36.4316 115.698 34.4189L107.848 40.2559H118.114ZM14.4549 40.2559L6.60505 34.4189C5.79993 36.4316 4.99481 38.2432 4.1897 40.2559H14.4549Z" fill="#2A5F9E"/>
<path d="M78.2601 48.3063H120.126C119.522 45.4884 118.717 42.8718 117.912 40.2552H107.647L115.497 34.4181C113.887 30.9963 112.075 27.9771 109.861 24.958L89.3305 40.2552H81.2793V36.2296L104.829 18.9196L102.011 16.1017L81.2793 31.1976V3.4211C78.6627 2.41471 76.0461 1.81087 73.2281 1.20703V48.3063H78.2601ZM1.97534 48.3063H49.0746V1.20703C46.2567 1.81087 43.6401 2.61599 41.0235 3.4211V31.1976L20.2917 16.1017C17.4738 18.7183 15.0585 21.5362 12.6431 24.5554L34.18 40.2552H20.493L8.21499 31.1976C7.61116 32.204 7.00732 33.4117 6.60476 34.4181L14.4546 40.2552H4.18941C3.3843 42.8718 2.57918 45.4884 1.97534 48.3063Z" fill="white"/>
<path d="M110.062 24.9584C108.452 22.7443 106.842 20.7315 105.03 18.7188L81.2795 36.0288V40.0543H89.3307L110.062 24.9584ZM33.9789 40.2556L12.6433 24.5558C11.8382 25.5622 11.2344 26.5686 10.4293 27.575C10.228 27.7763 10.228 27.9776 10.0267 27.9776C9.42287 28.984 8.61775 30.1917 8.01392 31.1981L20.2919 40.2556H33.9789Z" fill="#ED4C5C"/>
<path d="M120.327 48.307H73.2281V1.20767C69.4037 0.402558 65.3782 0 61.1513 0C56.9244 0 52.8989 0.402558 49.0746 1.20767V48.307H1.97525C1.17014 52.1313 0.767578 56.1569 0.767578 60.3837C0.767578 64.6106 1.17014 68.6362 1.97525 72.4605H49.0746V119.56C52.8989 120.365 56.9244 120.767 61.1513 120.767C65.3782 120.767 69.4037 120.365 73.2281 119.56V72.4605H120.327C121.132 68.6362 121.535 64.6106 121.535 60.3837C121.535 56.1569 121.132 52.1313 120.327 48.307Z" fill="#ED4C5C"/>
</svg>
