<svg width="62" height="102" viewBox="0 0 62 102" fill="none" xmlns="http://www.w3.org/2000/svg">
<path d="M31.0917 67.1708L30.8333 67.4292L30.5492 67.1708C18.2783 56.0367 10.1667 48.6742 10.1667 41.2083C10.1667 36.0417 14.0417 32.1667 19.2083 32.1667C23.1867 32.1667 27.0617 34.75 28.4308 38.2633H33.2358C34.605 34.75 38.48 32.1667 42.4583 32.1667C47.625 32.1667 51.5 36.0417 51.5 41.2083C51.5 48.6742 43.3883 56.0367 31.0917 67.1708ZM42.4583 27C37.9633 27 33.6492 29.0925 30.8333 32.3733C28.0175 29.0925 23.7033 27 19.2083 27C11.2517 27 5 33.2258 5 41.2083C5 50.9475 13.7833 58.93 27.0875 70.9942L30.8333 74.4042L34.5792 70.9942C47.8833 58.93 56.6667 50.9475 56.6667 41.2083C56.6667 33.2258 50.415 27 42.4583 27Z" fill="#5F762B"/>
</svg>
