<svg width="301" height="273" viewBox="0 0 301 273" fill="none" xmlns="http://www.w3.org/2000/svg">
<g clip-path="url(#clip0_3061_39565)">
<rect width="300.9" height="272.85" rx="136.425" fill="#F2F5EB"/>
<path d="M159.179 111.774L158.587 106.222C158.447 104.911 159.178 103.677 160.315 103.01C166.357 99.4619 170.406 92.9494 170.406 85.5028C170.406 74.2625 161.181 65.1504 149.8 65.1504C138.419 65.1504 129.193 74.2625 129.193 85.5028C129.193 93.3518 133.692 100.163 140.282 103.559C141.495 104.184 142.305 105.436 142.186 106.796L141.751 111.776M159.179 111.774L159.416 113.996M159.179 111.774L156.669 111.707M159.179 111.774L180.853 112.357C183.537 112.43 187.877 113.233 187.877 113.233L231.432 125.95C233.127 126.445 234.766 127.29 235.695 128.791C238.253 132.92 237.791 138.409 234.257 142.057C230.085 146.364 218.405 143.762 218.405 143.762L194.788 138.916C188.867 137.701 183.094 141.555 181.945 147.489L180.101 157.02C180.063 157.217 180.044 157.417 180.045 157.618L180.314 203.193C180.314 204.88 178.947 206.246 177.261 206.246H126.057C124.371 206.246 123.004 204.88 123.004 203.193L121.768 157.776C121.762 157.562 121.734 157.349 121.684 157.141L117.339 139.182M141.751 111.776L141.557 113.996M141.751 111.776L116.104 112.435C115.208 112.458 113.577 112.939 113.577 112.939L70.0216 125.656C68.3271 126.151 66.6879 126.997 65.7584 128.497C63.2008 132.627 63.663 138.115 67.1962 141.763C71.3682 146.071 83.0482 143.468 83.0482 143.468L117.339 139.182M141.751 111.776L144.458 111.707M116.496 142.057C117.269 141.317 117.59 140.222 117.339 139.182" stroke="#2C3714" stroke-width="6.10572"/>
<path d="M197.545 95.4335C196.566 95.0421 195.456 95.518 195.064 96.4965C194.673 97.4749 195.149 98.5853 196.127 98.9766L197.545 95.4335ZM251.013 120.329C251.981 119.914 252.43 118.792 252.015 117.823L245.25 102.04C244.835 101.071 243.713 100.622 242.745 101.037C241.776 101.453 241.328 102.574 241.743 103.543L247.756 117.573L233.726 123.586C232.757 124.001 232.308 125.123 232.723 126.091C233.138 127.06 234.26 127.508 235.229 127.093L251.013 120.329ZM196.836 97.2051L196.127 98.9766L249.552 120.347L250.261 118.575L250.97 116.804L197.545 95.4335L196.836 97.2051Z" fill="#5F762B"/>
<path d="M104.541 95.4335C105.52 95.0421 106.63 95.518 107.022 96.4965C107.413 97.4749 106.937 98.5853 105.959 98.9766L104.541 95.4335ZM51.0733 120.329C50.1048 119.914 49.6561 118.792 50.0712 117.823L56.8357 102.04C57.2508 101.071 58.3725 100.622 59.3411 101.037C60.3097 101.453 60.7583 102.574 60.3432 103.543L54.3303 117.573L68.3604 123.586C69.329 124.001 69.7777 125.123 69.3626 126.091C68.9475 127.06 67.8258 127.508 66.8572 127.093L51.0733 120.329ZM105.25 97.2051L105.959 98.9766L52.5336 120.347L51.825 118.575L51.1163 116.804L104.541 95.4335L105.25 97.2051Z" fill="#5F762B"/>
</g>
<defs>
<clipPath id="clip0_3061_39565">
<rect width="300.9" height="272.85" rx="136.425" fill="white"/>
</clipPath>
</defs>
</svg>
