<svg width="354" height="307" viewBox="0 0 354 307" fill="none" xmlns="http://www.w3.org/2000/svg">
<rect width="354" height="307" rx="153.5" fill="#F2F5EB"/>
<path d="M163.627 247.025L162.618 246.912C157.812 246.376 154.445 242.066 154.963 237.4C155.044 236.67 155.149 235.939 155.137 235.204L154.166 175.367L155.038 132.677L154.138 120.618C153.81 116.235 150.146 112.845 145.735 112.845H127.409C126.042 112.845 124.685 112.607 123.4 112.141L95.935 102.18C94.2634 101.574 92.6236 100.657 91.8509 99.0553C90.6144 96.4923 90.7631 93.4397 92.2792 91.0004C92.805 90.1545 95.7868 87.8793 96.7013 87.4806C97.3799 87.1848 124.602 98.3045 125.342 98.2892L146.727 97.3549C154.414 97.196 162.673 97.5566 170.552 97.3549L170.889 93.5037C170.981 92.4524 170.353 91.4838 169.412 91.0004C164.298 88.3747 160.807 83.1076 160.807 77.0381C160.807 68.3461 167.966 61.2998 176.798 61.2998C185.63 61.2998 192.789 68.3461 192.789 77.0381C192.789 82.7964 189.646 87.8325 184.957 90.576C184.075 91.0923 183.508 92.0462 183.617 93.0602L184.076 97.3533C193.831 97.615 197.7 98.2892 205.265 99.0689H226.184L253.693 87.0767C255.176 86.4305 256.792 86.0356 258.372 86.3787C259.136 86.5445 259.768 86.7543 260.074 86.9236C260.754 87.3003 261.35 88.626 261.764 89.292C263.749 92.4852 263.39 96.7295 260.648 99.5504C258.007 102.268 250.155 105.108 250.155 105.108L232.142 113.577C230.401 114.396 228.493 114.774 226.571 114.696C220.573 114.45 207.259 114.008 205.265 114.824C203.776 115.433 201.924 117.705 201.262 118.908C200.659 120.001 200.468 121.254 200.45 122.502L200.316 132.047L202.695 175.743L200.897 234.73C200.865 235.779 201.022 236.825 201.08 237.873C201.328 242.354 198.028 246.394 193.386 246.912L192.376 247.025C188.615 247.445 185.082 245.388 183.534 242.057C183.104 241.134 183.012 240.101 183.012 239.082V178.038L173.995 177.961L173.008 239.553C172.997 240.259 172.919 240.97 172.657 241.625C171.221 245.209 167.548 247.462 163.627 247.025Z" stroke="#2C3714" stroke-width="6.61259"/>
<path d="M98.874 167.102C98.874 168.243 99.7992 169.168 100.94 169.168C102.082 169.168 103.007 168.243 103.007 167.102H98.874ZM102.402 111.086C101.595 110.279 100.286 110.279 99.4792 111.086L86.3285 124.237C85.5215 125.044 85.5215 126.353 86.3285 127.16C87.1355 127.967 88.4439 127.967 89.2509 127.16L100.94 115.47L112.63 127.16C113.437 127.967 114.745 127.967 115.552 127.16C116.359 126.353 116.359 125.044 115.552 124.237L102.402 111.086ZM100.94 167.102H103.007V112.548H100.94H98.874V167.102H100.94Z" fill="#5F762B"/>
<path d="M252.617 167.102C252.617 168.243 253.542 169.168 254.684 169.168C255.825 169.168 256.75 168.243 256.75 167.102H252.617ZM256.145 111.086C255.338 110.279 254.029 110.279 253.222 111.086L240.072 124.237C239.265 125.044 239.265 126.353 240.072 127.16C240.879 127.967 242.187 127.967 242.994 127.16L254.684 115.47L266.373 127.16C267.18 127.967 268.489 127.967 269.295 127.16C270.102 126.353 270.102 125.044 269.295 124.237L256.145 111.086ZM254.684 167.102H256.75V112.548H254.684H252.617V167.102H254.684Z" fill="#5F762B"/>
</svg>
