<svg width="301" height="273" viewBox="0 0 301 273" fill="none" xmlns="http://www.w3.org/2000/svg">
<g clip-path="url(#clip0_3065_108870)">
<rect width="300.9" height="272.85" rx="136.425" transform="matrix(-1 0 0 1 300.9 0)" fill="#F2F5EB"/>
<path d="M129.492 116.162L128.493 110.668C128.258 109.371 127.209 108.394 125.929 108.074C119.131 106.375 113.409 101.27 111.308 94.1258C108.136 83.3422 114.416 71.9972 125.335 68.7859C136.253 65.5746 147.675 71.7132 150.847 82.4968C153.062 90.0269 150.668 97.8308 145.304 102.948C144.316 103.89 143.893 105.32 144.39 106.591L146.213 111.246M129.492 116.162L129.892 118.36M129.492 116.162L131.881 115.388M129.492 116.162L108.863 122.837C106.308 123.664 104.15 125.408 102.806 127.733L75.8254 174.403C72.8702 179.621 74.7044 186.246 79.9223 189.202C85.1401 192.157 91.7658 190.323 94.721 185.105L112.688 150.191C113.188 149.22 113.187 148.067 112.685 147.096L122.02 165.15C122.221 165.539 122.337 165.967 122.358 166.405L123.925 198.921C123.937 199.163 123.971 199.406 124.066 199.629C124.611 200.902 125.953 201.648 127.318 201.444C127.597 201.403 127.876 201.352 128.158 201.349L175.757 200.907C176.039 200.904 176.323 200.871 176.581 200.755C177.815 200.198 178.536 198.883 178.343 197.543C178.302 197.254 178.25 196.964 178.25 196.672L178.281 149.427L177.366 130.65C177.418 131.719 178.035 132.679 178.986 133.17L213.741 151.132C218.965 154.076 225.587 152.228 228.532 147.004C231.476 141.78 229.628 135.158 224.404 132.214L175.402 105.072C175.353 105.045 175.303 105.018 175.254 104.993C174.745 104.729 174.204 104.537 173.647 104.422C172.77 104.241 171.869 104.411 171.004 104.641L146.213 111.246M146.213 111.246L147.025 113.321M146.213 111.246L143.597 111.943" stroke="#2C3714" stroke-width="6.10572"/>
<path d="M179.618 98.2914C178.641 97.8965 178.169 96.7843 178.564 95.8073C178.959 94.8304 180.071 94.3586 181.048 94.7535L179.618 98.2914ZM253.832 124.779C254.243 125.75 253.79 126.87 252.82 127.281L237.012 133.988C236.042 134.399 234.922 133.947 234.51 132.976C234.099 132.006 234.551 130.886 235.521 130.475L249.574 124.513L243.612 110.461C243.201 109.491 243.653 108.371 244.623 107.96C245.593 107.548 246.714 108.001 247.125 108.971L253.832 124.779ZM180.333 96.5225L181.048 94.7535L252.79 123.756L252.075 125.525L251.36 127.294L179.618 98.2914L180.333 96.5225Z" fill="#5F762B"/>
<path d="M88.7235 124.412C89.3381 123.556 90.5302 123.36 91.3862 123.974C92.2422 124.589 92.438 125.781 91.8234 126.637L88.7235 124.412ZM47.8425 186.938C46.8027 187.109 45.8213 186.404 45.6506 185.364L42.8685 168.419C42.6978 167.379 43.4023 166.398 44.4422 166.227C45.482 166.056 46.4634 166.761 46.6341 167.801L49.1071 182.863L64.1698 180.39C65.2096 180.22 66.191 180.924 66.3617 181.964C66.5324 183.004 65.8279 183.985 64.788 184.156L47.8425 186.938ZM90.2734 125.524L91.8234 126.637L49.0833 186.168L47.5334 185.055L45.9835 183.942L88.7235 124.412L90.2734 125.524Z" fill="#5F762B"/>
</g>
<defs>
<clipPath id="clip0_3065_108870">
<rect width="300.9" height="272.85" rx="136.425" transform="matrix(-1 0 0 1 300.9 0)" fill="white"/>
</clipPath>
</defs>
</svg>
