<svg width="301" height="273" viewBox="0 0 301 273" fill="none" xmlns="http://www.w3.org/2000/svg">
<g clip-path="url(#clip0_3069_42925)">
<rect width="300.9" height="272.85" rx="136.425" fill="#F2F5EB"/>
<path d="M146.602 129.936L149.006 123.414C149.412 122.314 149.055 121.09 148.226 120.264C143.823 115.879 141.773 109.374 143.396 102.953C145.846 93.2591 155.736 87.4251 165.486 89.922C175.236 92.4189 181.154 102.301 178.704 111.995C176.993 118.764 171.655 123.65 165.269 125.133C164.094 125.406 163.127 126.308 162.932 127.507L161.902 133.854M149.388 128.187L142.881 126.856C137.308 125.803 133.851 120.143 135.434 114.662L146.708 75.6239C148.188 70.4999 145.261 65.1385 140.171 63.6488C135.081 62.1592 129.755 65.1054 128.275 70.2293C128.275 70.2293 115.088 115.888 114.046 119.497C113.003 123.107 115.91 128.303 117.719 131.059C118.551 132.326 119.196 133.718 119.489 135.209L120.377 139.733C120.377 139.733 118.304 151.4 117.03 161.965L117.003 179.124V206.29C117.003 207.79 118.212 209.006 119.702 209.006H168.279C169.769 209.006 170.977 207.79 170.977 206.29V179.559C170.977 179.27 171.023 178.984 171.112 178.71L171.945 176.16L187.048 142.544C187.144 142.33 187.266 142.13 187.413 141.949L189.988 138.763C190.466 138.171 190.873 137.525 191.201 136.836L212.712 91.5918C215 86.7785 212.979 81.0091 208.197 78.7055C203.416 76.4019 197.684 78.4364 195.396 83.2497L174.379 127.455C173.73 128.819 172.772 130.011 171.582 130.935L168.123 133.621C166.071 133.006 162.076 131.475 160.183 130.904" stroke="#2C3714" stroke-width="5.4332"/>
<path d="M160.631 57.9279C159.701 57.8015 159.049 56.9456 159.174 56.0163C159.299 55.0869 160.153 54.4359 161.082 54.5623L160.631 57.9279ZM212.132 62.0085C212.701 62.7551 212.558 63.8206 211.812 64.3883L199.668 73.6411C198.923 74.2089 197.858 74.0639 197.289 73.3174C196.72 72.5709 196.863 71.5054 197.608 70.9376L208.403 62.713L200.164 51.8991C199.595 51.1526 199.738 50.0871 200.484 49.5193C201.229 48.9515 202.294 49.0964 202.863 49.843L212.132 62.0085ZM160.856 56.2451L161.082 54.5623L211.008 61.3538L210.782 63.0366L210.556 64.7194L160.631 57.9279L160.856 56.2451Z" fill="#5F762B"/>
<path d="M89.8132 46.881C88.884 46.7546 88.2319 45.8988 88.3567 44.9694C88.4814 44.04 89.3358 43.3891 90.265 43.5155L89.8132 46.881ZM141.314 50.9617C141.883 51.7082 141.74 52.7737 140.995 53.3415L128.851 62.5942C128.105 63.162 127.04 63.0171 126.471 62.2705C125.903 61.524 126.046 60.4585 126.791 59.8907L137.586 51.6661L129.347 40.8522C128.778 40.1057 128.921 39.0402 129.666 38.4724C130.411 37.9046 131.477 38.0495 132.045 38.7961L141.314 50.9617ZM90.0391 45.1982L90.265 43.5155L140.191 50.307L139.965 51.9897L139.739 53.6725L89.8132 46.881L90.0391 45.1982Z" fill="#5F762B"/>
</g>
<defs>
<clipPath id="clip0_3069_42925">
<rect width="300.9" height="272.85" rx="136.425" fill="white"/>
</clipPath>
</defs>
</svg>
