<svg width="354" height="307" viewBox="0 0 354 307" fill="none" xmlns="http://www.w3.org/2000/svg">
<rect width="354" height="307" rx="153.5" fill="#F2F5EB"/>
<path d="M163.627 246.025L162.618 245.912C157.813 245.376 154.445 241.066 154.963 236.4C155.044 235.67 155.149 234.939 155.137 234.204L154.166 174.367L155.038 131.677L154.138 119.618C153.895 116.371 152.366 114.755 149.796 114.136C147.826 113.661 145.804 114.346 144.04 115.342C138.284 118.591 125.197 125.983 124.085 126.626C112.992 133.043 98.2129 144.846 93.7907 141.935C89.3685 139.025 91.8486 132.412 92.6749 131.677C93.6731 130.789 97.097 128.157 97.097 128.157L122.432 111.845L143.946 98.128C145.765 96.9683 147.868 96.3247 150.025 96.3155C156.746 96.2869 163.789 96.528 170.552 96.3549L170.89 92.5037C170.982 91.4524 170.353 90.4838 169.412 90.0004C164.298 87.3747 160.807 82.1076 160.807 76.0381C160.807 67.3461 167.966 60.2998 176.798 60.2998C185.63 60.2998 192.789 67.3461 192.789 76.0381C192.789 81.7964 189.647 86.8325 184.958 89.576C184.075 90.0923 183.508 91.0462 183.617 92.0602L184.076 96.3533C192.76 96.5863 196.779 97.1461 202.894 97.8163C204.457 97.9876 205.974 98.4589 207.352 99.2159L225.754 109.327L257.163 126.626C259.643 128.279 261.264 128.463 263.776 132.504C266.288 136.545 264.755 139.623 262.123 142.331C256.785 147.822 230.877 129.032 226.58 126.626C226.58 126.626 206.198 114.309 203.611 115.368C202.123 115.977 201.924 116.705 201.261 117.908C200.659 119.001 200.468 120.254 200.45 121.502L200.316 131.047L202.695 174.743L200.897 233.73C200.865 234.779 201.022 235.825 201.08 236.873C201.328 241.354 198.028 245.394 193.386 245.912L192.377 246.025C188.616 246.445 185.083 244.388 183.534 241.057C183.104 240.134 183.013 239.101 183.013 238.082V177.038L173.995 176.961L173.009 238.553C172.997 239.259 172.92 239.97 172.657 240.625C171.222 244.209 167.548 246.462 163.627 246.025Z" stroke="#2C3714" stroke-width="6.61259"/>
<path d="M102.181 115.88C102.181 114.739 103.106 113.814 104.247 113.814C105.388 113.814 106.314 114.739 106.314 115.88H102.181ZM105.708 171.895C104.901 172.702 103.593 172.702 102.786 171.895L89.6352 158.745C88.8282 157.938 88.8282 156.629 89.6352 155.822C90.4422 155.015 91.7506 155.015 92.5575 155.822L104.247 167.512L115.937 155.822C116.744 155.015 118.052 155.015 118.859 155.822C119.666 156.629 119.666 157.938 118.859 158.745L105.708 171.895ZM104.247 115.88H106.314V170.434H104.247H102.181V115.88H104.247Z" fill="#5F762B"/>
<path d="M250.964 115.88C250.964 114.739 251.889 113.814 253.03 113.814C254.172 113.814 255.097 114.739 255.097 115.88H250.964ZM254.491 171.895C253.684 172.702 252.376 172.702 251.569 171.895L238.418 158.745C237.611 157.938 237.611 156.629 238.418 155.822C239.225 155.015 240.534 155.015 241.341 155.822L253.03 167.512L264.72 155.822C265.527 155.015 266.835 155.015 267.642 155.822C268.449 156.629 268.449 157.938 267.642 158.745L254.491 171.895ZM253.03 115.88H255.097V170.434H253.03H250.964V115.88H253.03Z" fill="#5F762B"/>
</svg>
