<svg width="301" height="273" viewBox="0 0 301 273" fill="none" xmlns="http://www.w3.org/2000/svg">
<g clip-path="url(#clip0_3029_6755)">
<rect width="300.9" height="272.85" rx="136.425" fill="#F2F5EB"/>
<path d="M158.277 111.774L157.685 106.222C157.545 104.911 158.276 103.677 159.413 103.009C165.455 99.4614 169.504 92.9489 169.504 85.5023C169.504 74.262 160.279 65.1499 148.898 65.1499C137.517 65.1499 128.291 74.262 128.291 85.5023C128.291 93.3513 132.79 100.163 139.38 103.558C140.593 104.183 141.403 105.436 141.284 106.795L140.849 111.776M158.277 111.774L158.514 113.996M158.277 111.774L155.767 111.706M158.277 111.774L179.951 112.357C181.814 112.407 184.475 112.809 185.928 113.051C186.626 113.167 187.331 113.228 188.038 113.219L237.917 112.608C238.991 112.595 240.081 112.699 241.056 113.149C242.167 113.661 243.155 114.387 243.801 115.429C246.358 119.559 245.896 125.047 242.363 128.695C238.836 132.336 229.438 132.045 226.613 131.868C226.07 131.834 225.543 131.821 224.999 131.851C219.547 132.156 187.98 133.972 184.586 135.366C182.401 136.263 180.9 138.654 180.098 140.27C179.587 141.299 179.403 142.445 179.387 143.593L179.203 156.748C179.2 156.929 179.178 157.108 179.159 157.288C179.148 157.397 179.143 157.507 179.143 157.618L179.412 203.193C179.412 204.879 178.045 206.246 176.359 206.246H125.155C123.469 206.246 122.102 204.879 122.102 203.193L120.857 157.454L119.697 141.859C119.275 136.191 114.553 131.807 108.869 131.807L74.4531 132.025C73.8615 132.028 73.2744 132.083 72.6893 132.17C69.1497 132.695 61.966 133.286 58.8828 130.102C55.3496 126.454 54.8873 120.966 57.445 116.837C58.1226 115.743 59.1773 114.997 60.3556 114.481C61.2301 114.099 62.1916 113.986 63.1459 113.966L111.222 112.969C112.186 112.949 113.14 112.782 114.085 112.588C114.48 112.508 114.886 112.443 115.202 112.435L140.849 111.776M140.849 111.776L140.655 113.996M140.849 111.776L143.556 111.706" stroke="#2C3714" stroke-width="6.10572"/>
<path d="M112.871 154.065C113.925 154.065 114.779 153.21 114.779 152.156C114.779 151.103 113.925 150.248 112.871 150.248V154.065ZM61.1497 150.807C60.4046 151.552 60.4046 152.761 61.1497 153.506L73.2924 165.648C74.0375 166.393 75.2456 166.393 75.9908 165.648C76.7359 164.903 76.7359 163.695 75.9908 162.95L65.1973 152.156L75.9908 141.363C76.7359 140.618 76.7359 139.41 75.9908 138.665C75.2456 137.919 74.0375 137.919 73.2924 138.665L61.1497 150.807ZM112.871 152.156V150.248H62.4989V152.156V154.065H112.871V152.156Z" fill="#5F762B"/>
<path d="M189.191 150.248C188.138 150.248 187.283 151.103 187.283 152.156C187.283 153.21 188.138 154.065 189.191 154.065V150.248ZM240.913 153.506C241.658 152.761 241.658 151.552 240.913 150.807L228.77 138.665C228.025 137.919 226.817 137.919 226.072 138.665C225.327 139.41 225.327 140.618 226.072 141.363L236.865 152.156L226.072 162.95C225.327 163.695 225.327 164.903 226.072 165.648C226.817 166.393 228.025 166.393 228.77 165.648L240.913 153.506ZM189.191 152.156V154.065H239.564V152.156V150.248H189.191V152.156Z" fill="#5F762B"/>
</g>
<defs>
<clipPath id="clip0_3029_6755">
<rect width="300.9" height="272.85" rx="136.425" fill="white"/>
</clipPath>
</defs>
</svg>
