<svg width="302" height="273" viewBox="0 0 302 273" fill="none" xmlns="http://www.w3.org/2000/svg">
<g clip-path="url(#clip0_1447_31566)">
<rect x="0.900391" width="300.9" height="272.85" rx="136.425" fill="#F2F5EB"/>
<path fill-rule="evenodd" clip-rule="evenodd" d="M132.144 154.053L132.309 119.613C132.309 119.468 132.324 119.323 132.353 119.181L131.676 108.857L132.187 145.108C131.167 148.95 128.878 154.494 124.929 154.053L123.997 153.949C119.216 153.416 117.329 150.035 117.105 144.16C116.342 124.121 116.829 101.234 120.158 92.4682C120.863 90.6124 122.602 89.7022 124.586 89.6313L145.592 89.1823L146.03 85.0785C146.133 84.1092 145.593 83.1974 144.753 82.7038C140.287 80.0813 137.294 75.2673 137.294 69.7629C137.294 61.4543 144.113 54.7188 152.524 54.7188C160.935 54.7188 167.754 61.4543 167.754 69.7629C167.754 75.5648 164.429 80.5996 159.559 83.1096C158.662 83.5716 158.064 84.4975 158.151 85.5024L158.473 89.1837L180.097 89.6313C182.123 89.6732 187.369 90.572 188.084 92.4682C191.423 101.312 190.374 146.255 190.374 146.255C190.374 146.255 189.14 155.253 184.358 155.787L183.427 155.891C179.477 156.331 175.8 153.815 174.78 149.973L174.615 125.514L173.885 110.384C173.885 110.384 174.179 116.489 173.885 124.885C173.712 129.816 173.885 144.16 173.885 144.16L173.885 211.662C173.876 212.227 173.941 212.79 174.007 213.353C174.02 213.465 174.033 213.577 174.045 213.689C174.524 217.997 171.414 221.977 166.977 222.472L166.045 222.576C162.425 222.98 159.033 220.899 157.708 217.591C157.465 216.985 157.394 216.329 157.383 215.677L158.442 160.684L150.116 160.756L148.146 216.659C147.126 220.5 143.449 223.017 139.5 222.576L138.568 222.472C133.787 221.938 131.676 212.683 131.676 212.683L132.144 154.053Z" stroke="#2C3714" stroke-width="6.10572"/>
</g>
<defs>
<clipPath id="clip0_1447_31566">
<rect x="0.900391" width="300.9" height="272.85" rx="136.425" fill="white"/>
</clipPath>
</defs>
</svg>
