<svg width="301" height="273" viewBox="0 0 301 273" fill="none" xmlns="http://www.w3.org/2000/svg">
<g clip-path="url(#clip0_1447_31559)">
<rect width="300.9" height="272.85" rx="136.425" fill="#F2F5EB"/>
<path d="M156.188 129.936L153.767 123.414C153.359 122.314 153.718 121.09 154.553 120.265C158.985 115.88 161.048 109.375 159.414 102.953C156.948 93.2596 146.993 87.4256 137.178 89.9225C127.364 92.4194 121.406 102.302 123.872 111.995C125.595 118.764 130.969 123.651 137.396 125.133C138.58 125.406 139.553 126.309 139.749 127.507L140.786 133.855M153.383 128.188L159.933 126.856C165.543 125.804 169.023 120.143 167.43 114.662L156.081 75.6244C154.591 70.5004 157.537 65.139 162.661 63.6493C167.785 62.1597 173.147 65.1059 174.636 70.2298L188.96 119.498C190.009 123.107 187.083 128.303 185.262 131.059C184.424 132.327 183.775 133.719 183.481 135.209L182.587 139.733C182.587 139.733 184.673 151.4 185.956 161.966L185.982 179.124V206.29C185.982 207.79 184.766 209.007 183.266 209.007H134.367C132.867 209.007 131.65 207.79 131.65 206.29V179.559C131.65 179.271 131.605 178.985 131.515 178.711L130.676 176.16L115.473 142.544C115.377 142.331 115.253 142.131 115.105 141.949L112.514 138.764C112.032 138.172 111.622 137.525 111.293 136.837L89.6394 91.5922C87.3358 86.779 89.3703 81.0096 94.1835 78.706C98.9968 76.4024 104.766 78.4369 107.07 83.2502L128.226 127.455C128.879 128.82 129.843 130.012 131.041 130.936L134.524 133.621C136.59 133.007 140.611 131.475 142.517 130.904" stroke="#2C3714" stroke-width="5.4332"/>
<path d="M139.176 58.1543C140.105 58.0287 140.756 57.1736 140.631 56.2443C140.505 55.315 139.65 54.6635 138.721 54.7891L139.176 58.1543ZM87.3406 62.2342C86.7723 62.9801 86.9163 64.0454 87.6621 64.6137L99.817 73.8746C100.563 74.4429 101.628 74.2989 102.197 73.553C102.765 72.8072 102.621 71.7418 101.875 71.1735L91.0707 62.9416L99.3025 52.1373C99.8708 51.3914 99.7269 50.326 98.981 49.7577C98.2351 49.1895 97.1698 49.3334 96.6015 50.0793L87.3406 62.2342ZM138.948 56.4717L138.721 54.7891L88.4638 61.5806L88.6911 63.2632L88.9185 64.9458L139.176 58.1543L138.948 56.4717Z" fill="#5F762B"/>
<path d="M213.882 48.6464C214.811 48.5209 215.462 47.6658 215.337 46.7365C215.211 45.8072 214.356 45.1557 213.427 45.2813L213.882 48.6464ZM162.047 52.7264C161.478 53.4723 161.622 54.5376 162.368 55.1059L174.523 64.3668C175.269 64.9351 176.334 64.7911 176.903 64.0452C177.471 63.2993 177.327 62.234 176.581 61.6657L165.777 53.4338L174.009 42.6295C174.577 41.8836 174.433 40.8182 173.687 40.2499C172.941 39.6816 171.876 39.8256 171.308 40.5715L162.047 52.7264ZM213.654 46.9639L213.427 45.2813L163.17 52.0728L163.397 53.7554L163.625 55.4379L213.882 48.6464L213.654 46.9639Z" fill="#5F762B"/>
</g>
<defs>
<clipPath id="clip0_1447_31559">
<rect width="300.9" height="272.85" rx="136.425" fill="white"/>
</clipPath>
</defs>
</svg>
