<svg width="302" height="273" viewBox="0 0 302 273" fill="none" xmlns="http://www.w3.org/2000/svg">
<g clip-path="url(#clip0_3175_70811)">
<rect x="0.900391" width="300.9" height="272.85" rx="136.425" fill="#F2F5EB"/>
<path fill-rule="evenodd" clip-rule="evenodd" d="M129.343 149.907L137.665 120.724C137.666 120.58 137.681 120.435 137.71 120.293L139.723 110.27L130.774 143.99C129.754 147.831 126.077 150.348 122.127 149.907L121.196 149.803C116.414 149.269 113.175 144.691 114.304 140.014C117.692 125.98 124.324 99.196 127.653 90.4305C128.358 88.5747 130.097 87.6645 132.081 87.5936L153.087 86.8424L153.525 82.7387C153.628 81.7694 153.088 80.8575 152.248 80.364C147.782 77.7415 144.789 72.9275 144.789 67.4231C144.789 59.1144 151.608 52.3789 160.019 52.3789C168.43 52.3789 175.249 59.1144 175.249 67.4231C175.249 73.225 171.924 78.2598 167.054 80.7697C166.157 81.2318 165.559 82.1577 165.647 83.1626L165.968 86.8439L187.592 87.2914C189.618 87.3333 191.403 88.2638 192.119 90.16C195.457 99.0039 188.685 145.827 188.685 145.827C188.685 145.827 186.575 155.083 181.794 155.616L180.862 155.72C176.912 156.161 173.235 153.645 172.215 149.803L178.189 114.963H177.426C177.426 114.963 175.918 125.254 174.472 131.753C173.4 136.57 171.32 143.99 171.32 143.99L181.38 209.322C181.371 209.887 181.436 210.45 181.502 211.013C181.515 211.125 181.528 211.237 181.54 211.349C182.019 215.657 178.909 219.637 174.472 220.132L173.54 220.236C169.92 220.64 166.528 218.559 165.203 215.251C164.96 214.645 164.889 213.989 164.878 213.337L155.641 156.538L147.314 156.61L155.641 214.319C154.621 218.16 150.944 220.677 146.995 220.236L146.063 220.132C141.282 219.599 139.172 210.343 139.172 210.343L129.343 149.907Z" stroke="#2C3714" stroke-width="6.11"/>
<path d="M112.661 92.6123C112.963 91.6016 112.388 90.5374 111.378 90.2355C110.367 89.9336 109.303 90.5082 109.001 91.519L112.661 92.6123ZM93.2769 150.833L91.4468 150.287L91.2215 151.041L91.5933 151.735L93.2769 150.833ZM115.621 195.402C116.63 195.707 117.696 195.136 118.002 194.126L122.976 177.672C123.282 176.662 122.71 175.596 121.701 175.291C120.691 174.985 119.625 175.556 119.32 176.566L114.898 191.192L100.272 186.771C99.2619 186.465 98.1959 187.036 97.8907 188.046C97.5854 189.056 98.1565 190.122 99.1662 190.427L115.621 195.402ZM110.831 92.0656L109.001 91.519L91.4468 150.287L93.2769 150.833L95.107 151.38L112.661 92.6123L110.831 92.0656ZM93.2769 150.833L91.5933 151.735L114.49 194.475L116.173 193.573L117.857 192.671L94.9606 149.931L93.2769 150.833Z" fill="#5F762B"/>
</g>
<defs>
<clipPath id="clip0_3175_70811">
<rect x="0.900391" width="300.9" height="272.85" rx="136.425" fill="white"/>
</clipPath>
</defs>
</svg>
