<svg width="301" height="273" viewBox="0 0 301 273" fill="none" xmlns="http://www.w3.org/2000/svg">
<g clip-path="url(#clip0_3061_39601)">
<rect width="300.9" height="272.85" rx="136.425" fill="#F2F5EB"/>
<path d="M177.813 145.08L177.275 203.112C177.275 204.794 175.911 206.158 174.229 206.158H123.137C121.455 206.158 120.091 204.794 120.091 203.112L118.469 148.38M118.469 148.38L97.8546 145.649C96.3033 145.443 94.7546 144.963 93.6423 143.862C89.3496 139.614 89.3041 132.409 94.0152 128.145L108.851 114.716C110.058 113.623 111.478 112.653 113.103 112.557C113.138 112.555 113.173 112.554 113.206 112.553L138.797 111.895M118.469 148.38L132.414 149.855C133.569 149.977 134.702 150.329 135.859 150.426C137.444 150.557 139.361 150.28 140.554 149.903C145.176 148.444 147.074 144.753 146.775 139.694M156.187 111.893L155.596 106.354C155.456 105.045 156.185 103.814 157.32 103.148C163.349 99.6082 167.389 93.11 167.389 85.6798C167.389 74.4641 158.184 65.3721 146.828 65.3721C135.472 65.3721 126.267 74.4641 126.267 85.6798C126.267 93.5116 130.755 100.308 137.331 103.696C138.541 104.32 139.349 105.569 139.231 106.926L138.797 111.895M156.187 111.893L156.423 114.111M156.187 111.893L153.682 111.826M156.187 111.893L177.813 112.475C178.899 112.505 180.257 112.654 181.487 112.821C183.666 113.117 185.653 114.183 187.204 115.74L198.04 126.613C204.26 132.855 200.822 143.517 192.128 144.95L162.674 149.806C161.735 149.961 160.825 150.259 159.9 150.48C158.1 150.912 155.619 151.075 154.32 150.664C149.698 149.205 146.477 144.753 146.775 139.694M138.797 111.895L138.604 114.111M138.797 111.895L141.498 111.826M146.775 139.694C146.423 133.721 115.423 132.387 115.423 132.387M146.775 139.694C147.128 133.721 177.275 129.341 177.275 129.341" stroke="#2C3714" stroke-width="6.09231"/>
<path d="M202.747 103.756C202.075 102.947 200.875 102.835 200.066 103.506C199.256 104.178 199.145 105.378 199.816 106.187L202.747 103.756ZM229.295 138.743L227.83 139.958L227.83 139.958L229.295 138.743ZM228.333 143.402L229.197 145.098L229.197 145.098L228.333 143.402ZM189.554 161.646C189.229 162.646 189.776 163.721 190.776 164.046L207.071 169.342C208.071 169.667 209.145 169.12 209.47 168.12C209.795 167.12 209.248 166.045 208.248 165.72L193.763 161.013L198.471 146.528C198.796 145.528 198.249 144.454 197.249 144.129C196.249 143.804 195.175 144.351 194.85 145.351L189.554 161.646ZM201.281 104.972L199.816 106.187L227.83 139.958L229.295 138.743L230.76 137.527L202.747 103.756L201.281 104.972ZM228.333 143.402L227.469 141.706L190.5 160.539L191.364 162.235L192.228 163.931L229.197 145.098L228.333 143.402ZM229.295 138.743L227.83 139.958C228.297 140.522 228.121 141.373 227.469 141.706L228.333 143.402L229.197 145.098C232.024 143.658 232.785 139.969 230.76 137.527L229.295 138.743Z" fill="#5F762B"/>
<path d="M96.9448 105.28C97.6161 104.47 98.8164 104.358 99.6257 105.03C100.435 105.701 100.547 106.901 99.8755 107.711L96.9448 105.28ZM70.3965 140.266L71.8618 141.482L71.8618 141.482L70.3965 140.266ZM71.3583 144.925L70.4941 146.622L70.4941 146.622L71.3583 144.925ZM110.138 163.17C110.463 164.17 109.916 165.244 108.916 165.569L92.62 170.865C91.6201 171.19 90.546 170.643 90.221 169.643C89.896 168.643 90.4431 167.569 91.4431 167.244L105.928 162.536L101.22 148.051C100.895 147.051 101.443 145.977 102.443 145.652C103.443 145.327 104.517 145.874 104.842 146.874L110.138 163.17ZM98.4102 106.495L99.8755 107.711L71.8618 141.482L70.3965 140.266L68.9312 139.051L96.9448 105.28L98.4102 106.495ZM71.3583 144.925L72.2225 143.229L109.191 162.062L108.327 163.758L107.463 165.455L70.4941 146.622L71.3583 144.925ZM70.3965 140.266L71.8618 141.482C71.3944 142.045 71.5702 142.897 72.2225 143.229L71.3583 144.925L70.4941 146.622C67.6676 145.182 66.9059 141.492 68.9312 139.051L70.3965 140.266Z" fill="#5F762B"/>
</g>
<defs>
<clipPath id="clip0_3061_39601">
<rect width="300.9" height="272.85" rx="136.425" fill="white"/>
</clipPath>
</defs>
</svg>
