<svg width="301" height="273" viewBox="0 0 301 273" fill="none" xmlns="http://www.w3.org/2000/svg">
<g clip-path="url(#clip0_3065_102625)">
<rect width="300.9" height="272.85" rx="136.425" fill="#F2F5EB"/>
<path d="M171.408 116.162L172.407 110.668C172.643 109.371 173.692 108.394 174.971 108.074C181.769 106.375 187.491 101.27 189.592 94.1258C192.764 83.3422 186.484 71.9972 175.566 68.7859C164.647 65.5746 153.225 71.7132 150.053 82.4968C147.839 90.0269 150.233 97.8308 155.597 102.948C156.584 103.89 157.008 105.32 156.51 106.591L154.688 111.246M171.408 116.162L171.009 118.36M171.408 116.162L169.019 115.388M171.408 116.162L192.037 122.837C194.592 123.664 196.75 125.408 198.094 127.733L225.075 174.403C228.03 179.621 226.196 186.246 220.978 189.202C215.76 192.157 209.135 190.323 206.179 185.105L188.213 150.191C187.713 149.22 187.714 148.067 188.216 147.096L178.88 165.15C178.679 165.539 178.564 165.967 178.543 166.405L176.975 198.921C176.963 199.163 176.93 199.406 176.834 199.629C176.289 200.902 174.947 201.648 173.582 201.444C173.303 201.403 173.024 201.352 172.742 201.349L125.144 200.907C124.861 200.904 124.577 200.871 124.32 200.755C123.085 200.198 122.364 198.883 122.557 197.543C122.599 197.254 122.651 196.964 122.651 196.672L122.62 149.427L123.534 130.65C123.482 131.719 122.865 132.679 121.915 133.17L87.159 151.132C81.935 154.076 75.3132 152.228 72.3688 147.004C69.4243 141.78 71.2722 135.158 76.4962 132.214L125.499 105.072C125.548 105.045 125.597 105.018 125.647 104.993C126.155 104.729 126.696 104.537 127.254 104.422C128.131 104.241 129.031 104.411 129.896 104.641L154.688 111.246M154.688 111.246L153.875 113.321M154.688 111.246L157.304 111.943" stroke="#2C3714" stroke-width="6.10572"/>
<path d="M121.282 98.2914C122.259 97.8965 122.731 96.7843 122.336 95.8073C121.941 94.8304 120.829 94.3586 119.852 94.7535L121.282 98.2914ZM47.0687 124.779C46.6571 125.75 47.1099 126.87 48.08 127.281L63.8885 133.988C64.8586 134.399 65.9787 133.947 66.3902 132.976C66.8018 132.006 66.349 130.886 65.3789 130.475L51.3269 124.513L57.2883 110.461C57.6999 109.491 57.2471 108.371 56.277 107.96C55.3069 107.548 54.1869 108.001 53.7753 108.971L47.0687 124.779ZM120.567 96.5225L119.852 94.7535L48.1101 123.756L48.8252 125.525L49.5403 127.294L121.282 98.2914L120.567 96.5225Z" fill="#5F762B"/>
<path d="M212.177 124.412C211.562 123.556 210.37 123.36 209.514 123.974C208.658 124.589 208.462 125.781 209.077 126.637L212.177 124.412ZM253.058 186.938C254.098 187.109 255.079 186.404 255.25 185.364L258.032 168.419C258.203 167.379 257.498 166.398 256.458 166.227C255.418 166.056 254.437 166.761 254.266 167.801L251.793 182.863L236.731 180.39C235.691 180.22 234.709 180.924 234.539 181.964C234.368 183.004 235.073 183.985 236.112 184.156L253.058 186.938ZM210.627 125.524L209.077 126.637L251.817 186.168L253.367 185.055L254.917 183.942L212.177 124.412L210.627 125.524Z" fill="#5F762B"/>
</g>
<defs>
<clipPath id="clip0_3065_102625">
<rect width="300.9" height="272.85" rx="136.425" fill="white"/>
</clipPath>
</defs>
</svg>
