<svg width="500" height="429" viewBox="0 0 500 429" fill="none" xmlns="http://www.w3.org/2000/svg">
<path d="M233.083 188.418C233.158 188.493 233.208 188.568 233.233 188.618H233.257C233.382 188.667 233.482 188.692 233.531 188.643C233.556 188.618 233.556 188.593 233.531 188.543C233.407 188.518 233.258 188.468 233.083 188.418ZM232.934 187.92L232.635 188.219C232.759 188.294 232.859 188.369 232.984 188.418C232.984 188.394 233.008 188.394 233.083 188.418C232.884 188.145 232.884 188.02 232.934 187.92ZM214.529 164.14C214.579 164.19 214.653 164.24 214.703 164.29V164.19C214.653 164.19 214.579 164.165 214.529 164.14ZM214.504 163.617C214.454 163.742 214.404 163.866 214.33 163.991C214.404 164.041 214.454 164.09 214.529 164.14C214.404 163.866 214.454 163.742 214.504 163.617Z" fill="#664425"/>
<path d="M326.253 135.479C325.979 133.885 324.833 132.516 325.058 130.374C328.694 132.889 331.608 135.728 334.248 138.84C334.472 138.567 334.646 138.542 334.796 138.89C334.771 138.89 334.771 138.89 334.746 138.89C336.937 143.547 339.029 148.203 339.527 153.432C340.075 159.16 341.644 164.887 340.524 170.664C337.784 184.957 331.334 197.656 322.991 209.385C315.444 220.042 305.582 228.359 295.122 236.003C279.805 247.234 262.969 255.7 245.038 261.402C225.687 267.553 206.012 272.906 185.615 274.774C175.528 275.695 165.441 276.268 155.33 276.343C149.179 276.393 143.002 276.467 136.826 276.542C134.933 275.919 133.015 276.218 131.073 276.293H130.599C126.166 276.144 121.733 275.87 117.3 276.193C116.902 276.193 116.528 276.193 116.154 276.168C115.98 276.417 115.806 276.417 115.631 276.168C115.258 276.144 114.909 276.094 114.536 276.069C113.415 276.99 112.643 276.019 111.771 275.596C111.398 275.596 110.999 275.571 110.626 275.571C107.139 276.492 103.652 276.343 100.165 275.646C97.675 275.895 94.8358 274.401 92.7438 276.492C87.19 282.045 80.8143 286.652 75.1359 292.03C54.0663 311.901 33.5197 332.295 15.1647 354.755C11.9769 358.665 8.7392 362.649 7.61847 367.803C7.17018 369.82 7.29471 371.837 8.93844 373.406C10.6071 375.025 12.4749 374.502 14.3677 373.829C15.6877 373.331 16.8333 372.634 17.979 371.812C25.2761 366.608 31.7265 360.383 38.1769 354.208C56.0587 337.026 73.7164 319.62 91.4985 302.289C94.1883 299.675 97.2516 297.409 99.4681 294.321C101.71 292.329 103.951 290.362 106.516 288.071C106.516 289.964 105.694 290.785 105.072 291.632C99.7172 299.027 93.466 305.651 87.439 312.449C83.4293 317.006 78.8219 321.015 75.111 325.821L75.1857 325.871C74.9367 326.045 74.6627 326.244 74.4137 326.418C74.2892 326.543 74.1646 326.667 74.0401 326.792C72.1473 328.087 70.5534 329.68 69.1089 331.448C67.8139 332.345 66.743 333.465 65.7717 334.71C65.2238 335.283 64.6758 335.856 64.1279 336.428C59.8692 340.238 56.1832 344.621 52.049 348.555C41.8379 358.266 31.4526 367.779 20.5442 376.718C19.0001 377.988 19.4982 378.411 20.8181 379.208C25.4255 381.972 29.9334 381.1 34.5657 379.183C48.6619 373.307 60.0933 363.645 71.2258 353.535C72.5458 352.415 73.9654 351.394 75.1359 350.149C75.6091 349.651 76.0574 349.128 76.431 348.53C76.6053 348.231 76.7797 347.908 76.9291 347.584C76.954 347.584 76.954 347.584 76.954 347.584V347.559C76.9042 346.787 77.2778 346.414 78.0498 346.463H78.0747C81.7357 344.073 84.5002 340.736 87.439 337.599L87.4888 337.649C88.3605 336.827 89.2571 336.055 90.1287 335.233C102.581 323.231 113.639 309.884 126.191 297.957C128.831 295.467 131.546 293.226 135.107 292.23C136.477 292.205 137.971 291.731 139.217 292.379C143.699 294.744 148.73 295.815 153.213 298.206C158.169 300.845 163.325 303.086 168.804 304.481C171.618 305.9 174.756 306.274 177.72 307.195C190.346 311.129 203.397 313.196 216.497 314.142C229.821 315.088 243.195 315.088 256.569 313.868C277.589 311.951 297.587 306.672 316.988 298.33C341.819 287.598 361.942 271.089 378.578 250.072C397.681 225.944 404.928 197.656 407.468 167.7C408.514 155.624 407.045 143.796 405.202 131.943C404.754 129.005 404.455 126.091 405.6 123.228C406.796 120.24 407.892 117.202 409.087 114.214C411.553 108.113 414.741 102.46 419.174 97.5051C422.287 93.9941 425.101 90.2341 428.065 86.5737C428.438 86.1254 428.762 85.7021 428.413 85.1045C425.699 84.1084 423.931 81.5686 421.166 80.6472C420.245 79.8006 419.348 78.954 418.427 78.1074C416.16 77.3354 415.787 76.2149 417.654 74.4967C418.725 73.5007 419.323 72.0814 420.643 71.3343C422.81 66.6032 426.745 63.142 429.534 58.859C430.73 57.0164 432.124 55.2982 433.419 53.5303C430.655 48.9485 428.04 44.317 425.151 39.8348C419.796 31.5428 413.769 23.8485 405.451 18.1462C393.671 10.0783 380.421 8.16095 366.624 8.11115C366.126 8.18586 365.653 8.18586 365.304 7.76254C361.718 7.71274 358.156 7.88704 354.595 8.06134C348.394 8.38505 342.342 9.40599 336.514 11.2985C311.385 19.4659 294.599 36.9463 283.466 60.2286C278.66 70.3134 273.778 80.2737 266.63 88.9641M101.211 280.949C101.012 280.651 100.788 280.427 100.813 280.252C100.813 280.053 101.087 279.904 101.236 279.704C101.386 279.904 101.635 280.053 101.66 280.252C101.66 280.427 101.436 280.651 101.211 280.949ZM68.4614 338.794C68.3867 338.694 68.2871 338.62 68.2372 338.495C68.2372 338.445 68.312 338.321 68.3618 338.321C68.4863 338.346 68.6108 338.396 68.7603 338.445C68.6606 338.57 68.561 338.694 68.4614 338.794ZM76.8793 333.664C77.0038 333.839 77.1283 334.038 77.2529 334.212C76.6302 334.387 77.0038 333.839 76.8793 333.664ZM174.98 293.798C175.055 293.748 175.13 293.699 175.204 293.649C175.254 293.898 175.329 294.122 175.403 294.346C175.254 294.147 175.13 293.997 174.98 293.798ZM180.011 306.946C179.837 306.896 179.712 306.597 179.563 306.423C179.787 306.323 180.011 306.099 180.21 306.124C180.409 306.149 180.559 306.423 180.833 306.672C180.459 306.796 180.21 306.971 180.011 306.946ZM182.551 276.916C182.103 276.841 182.078 276.442 182.053 276.094C182.402 276.144 182.775 276.144 182.85 276.617C182.85 276.691 182.626 276.916 182.551 276.916ZM183.871 289.715C183.323 289.64 183.174 289.266 183.199 288.793C183.224 288.42 183.273 288.046 183.722 287.996C184.245 287.947 184.544 288.295 184.618 288.743C184.693 289.266 184.319 289.54 183.871 289.715ZM189.5 284.361H189.475C189.375 284.436 189.3 284.436 189.251 284.411C189.251 284.411 189.251 284.411 189.226 284.411C188.977 284.46 188.678 284.485 188.528 284.61C188.678 284.436 188.977 284.336 189.3 284.087C189.325 284.062 189.325 284.037 189.35 284.012C189.375 283.962 189.425 283.913 189.475 283.863C189.525 283.738 189.624 283.639 189.699 283.514C189.799 283.639 189.898 283.713 189.973 283.813C190.023 283.838 190.048 283.863 190.073 283.888C189.873 284.037 189.724 284.236 189.5 284.361ZM193.036 286.975C193.036 286.975 192.862 286.901 192.862 286.876C192.837 286.726 192.862 286.602 192.887 286.453C193.011 286.527 193.136 286.577 193.285 286.652C193.211 286.776 193.136 286.876 193.036 286.975ZM202.525 277.762C202.575 277.414 202.575 276.99 203.048 276.94C203.123 276.94 203.347 277.165 203.347 277.239C203.272 277.712 202.874 277.712 202.525 277.762ZM204.866 273.654C204.742 273.604 204.592 273.529 204.443 273.479C204.517 273.33 204.542 273.131 204.642 273.081C204.742 273.031 204.916 273.18 205.04 273.23C204.991 273.38 204.941 273.529 204.866 273.654ZM366.226 10.153C366.375 10.2028 366.525 10.2775 366.649 10.3273C366.599 10.4767 366.574 10.6759 366.475 10.7257C366.375 10.7755 366.201 10.6261 366.051 10.5763C366.101 10.4269 366.176 10.2775 366.226 10.153ZM351.98 122.804V122.779C352.055 122.829 352.129 122.879 352.204 122.904C352.129 122.879 352.055 122.829 351.98 122.804ZM393.945 74.4719C393.746 74.696 393.571 74.9201 393.372 75.1442C393.223 75.3185 393.048 75.5177 392.899 75.6671C392.899 76.19 392.849 76.6631 392.177 76.6382C392.226 77.0366 392.027 77.2358 391.604 77.2109C391.654 77.8583 391.18 77.9081 390.682 77.9081C390.682 78.705 390.309 79.0536 389.537 78.9291C389.487 79.2777 389.263 79.4769 388.914 79.5018C388.814 80.0745 388.391 80.1741 387.843 80.0496C387.918 80.946 387.619 81.3694 386.648 80.971H386.573C385.851 83.0626 384.282 83.486 382.314 83.1871L382.115 83.1622C380.82 85.5776 378.205 85.2539 376.188 85.5029C371.555 86.1254 366.848 86.0258 362.39 84.1333C361.718 83.8345 361.02 83.6353 360.971 82.7638C360.423 82.9132 359.999 82.8883 359.85 82.2658C359.327 82.3654 358.904 82.3156 358.729 81.718C358.206 81.8176 357.758 81.7927 357.509 81.22C356.139 80.5476 354.919 79.701 353.997 78.456C353.723 78.2568 353.424 78.0576 353.15 77.8584L353.3 77.7836C352.901 77.8085 352.702 77.6094 352.702 77.2358C352.329 77.2358 352.154 77.0615 352.154 76.688C351.781 76.6631 351.581 76.4888 351.606 76.1153C351.208 76.1153 351.034 75.941 351.058 75.5426L351.158 75.5177C350.411 75.5675 350.361 75.0944 350.436 74.5714C350.112 74.4967 349.913 74.2727 349.888 73.924C349.539 73.8991 349.365 73.6999 349.415 73.3264L349.514 73.2766C348.717 73.3264 348.692 72.8782 348.842 72.3055C348.194 72.2059 348.145 71.7577 348.219 71.2347C347.622 71.0853 347.572 70.6122 347.646 70.1142C347.024 70.2138 346.576 69.9399 346.351 69.417C344.733 65.1091 343.711 60.7017 344.434 56.0702C344.558 55.2982 344.758 54.4267 345.604 53.9785C346.327 52.0113 346.85 49.9445 347.821 48.1019C352.852 38.6147 361.045 34.0329 371.58 33.8088C382.538 33.5598 391.205 38.1665 396.211 48.0023C400.545 56.5682 399.573 65.3083 394.568 73.5256C395.414 74.6213 394.642 74.5217 393.945 74.4719Z" fill="#6D4B2F"/>
<path d="M326.253 135.479C325.979 133.885 324.833 132.516 325.058 130.374C328.694 132.889 331.608 135.728 334.248 138.84C334.472 138.567 334.646 138.542 334.796 138.89C334.771 138.89 334.771 138.89 334.746 138.89C336.937 143.547 339.029 148.203 339.527 153.432C340.075 159.16 341.644 164.887 340.524 170.664C337.784 184.957 331.334 197.656 322.991 209.385C315.444 220.042 305.582 228.359 295.122 236.003C279.805 247.234 262.969 255.7 245.038 261.402C225.687 267.553 206.012 272.906 185.615 274.774C175.528 275.695 165.441 276.268 155.33 276.343C149.179 276.393 143.002 276.467 136.826 276.542C134.933 275.919 133.015 276.218 131.073 276.293H130.599C126.166 276.144 121.733 275.87 117.3 276.193C116.902 276.193 116.528 276.193 116.154 276.168C115.98 276.417 115.806 276.417 115.631 276.168C115.258 276.144 114.909 276.094 114.536 276.069C113.415 276.99 112.643 276.019 111.771 275.596C111.398 275.596 110.999 275.571 110.626 275.571C107.139 276.492 103.652 276.343 100.165 275.646C97.675 275.895 94.8358 274.401 92.7438 276.492C87.19 282.045 80.8143 286.652 75.1359 292.03C54.0663 311.901 33.5197 332.295 15.1647 354.755C11.9769 358.665 8.7392 362.649 7.61847 367.803C7.17018 369.82 7.29471 371.837 8.93844 373.406C10.6071 375.025 12.4749 374.502 14.3677 373.829C15.6877 373.331 16.8333 372.634 17.979 371.812C25.2761 366.608 31.7265 360.383 38.1769 354.208C56.0587 337.026 73.7164 319.62 91.4985 302.289C94.1883 299.675 97.2516 297.409 99.4681 294.321C101.71 292.329 103.951 290.362 106.516 288.071C106.516 289.964 105.694 290.785 105.072 291.632C99.7172 299.027 93.466 305.651 87.439 312.449C83.4293 317.006 78.8219 321.015 75.111 325.821L75.1857 325.871C74.9367 326.045 74.6627 326.244 74.4137 326.418C74.2892 326.543 74.1646 326.667 74.0401 326.792C72.1473 328.087 70.5534 329.68 69.1089 331.448C67.8139 332.345 66.743 333.465 65.7717 334.71C65.2238 335.283 64.6758 335.856 64.1279 336.428C59.8692 340.238 56.1832 344.621 52.049 348.555C41.8379 358.266 31.4526 367.779 20.5442 376.718C19.0001 377.988 19.4982 378.411 20.8181 379.208C25.4255 381.972 29.9334 381.1 34.5657 379.183C48.6619 373.307 60.0933 363.645 71.2258 353.535C72.5458 352.415 73.9654 351.394 75.1359 350.149C75.6091 349.651 76.0574 349.128 76.431 348.53C76.6053 348.231 76.7797 347.908 76.9291 347.584C76.954 347.584 76.954 347.584 76.954 347.584V347.559C76.9042 346.787 77.2778 346.414 78.0498 346.463H78.0747C81.7357 344.073 84.5002 340.736 87.439 337.599L87.4888 337.649C88.3605 336.827 89.2571 336.055 90.1287 335.233C102.581 323.231 113.639 309.884 126.191 297.957C128.831 295.467 131.546 293.226 135.107 292.23C136.477 292.205 137.971 291.731 139.217 292.379C143.699 294.744 148.73 295.815 153.213 298.206C158.169 300.845 163.325 303.086 168.804 304.481C171.618 305.9 174.756 306.274 177.72 307.195C190.346 311.129 203.397 313.196 216.497 314.142C229.821 315.088 243.195 315.088 256.569 313.868C277.589 311.951 297.587 306.672 316.988 298.33C341.819 287.598 361.942 271.089 378.578 250.072C397.681 225.944 404.928 197.656 407.468 167.7C408.514 155.624 407.045 143.796 405.202 131.943C404.754 129.005 404.455 126.091 405.6 123.228C406.796 120.24 407.892 117.202 409.087 114.214C411.553 108.113 414.741 102.46 419.174 97.5051C422.287 93.9941 425.101 90.2341 428.065 86.5737C428.438 86.1254 428.762 85.7021 428.413 85.1045C425.699 84.1084 423.931 81.5686 421.166 80.6472C420.245 79.8006 419.348 78.954 418.427 78.1074C416.16 77.3354 415.787 76.2149 417.654 74.4967C418.725 73.5007 419.323 72.0814 420.643 71.3343C422.81 66.6032 426.745 63.142 429.534 58.859C430.73 57.0164 432.124 55.2982 433.419 53.5303C430.655 48.9485 428.04 44.317 425.151 39.8348C419.796 31.5428 413.769 23.8485 405.451 18.1462C393.671 10.0783 380.421 8.16095 366.624 8.11115C366.126 8.18586 365.653 8.18586 365.304 7.76254C361.718 7.71274 358.156 7.88704 354.595 8.06134C348.394 8.38505 342.342 9.40599 336.514 11.2985C311.385 19.4659 294.599 36.9463 283.466 60.2286C278.66 70.3134 273.778 80.2737 266.63 88.9641M101.211 280.949C101.012 280.651 100.788 280.427 100.813 280.252C100.813 280.053 101.087 279.904 101.236 279.704C101.386 279.904 101.635 280.053 101.66 280.252C101.66 280.427 101.436 280.651 101.211 280.949ZM68.4614 338.794C68.3867 338.694 68.2871 338.62 68.2372 338.495C68.2372 338.445 68.312 338.321 68.3618 338.321C68.4863 338.346 68.6108 338.396 68.7603 338.445C68.6606 338.57 68.561 338.694 68.4614 338.794ZM76.8793 333.664C77.0038 333.839 77.1283 334.038 77.2529 334.212C76.6302 334.387 77.0038 333.839 76.8793 333.664ZM174.98 293.798C175.055 293.748 175.13 293.699 175.204 293.649C175.254 293.898 175.329 294.122 175.403 294.346C175.254 294.147 175.13 293.997 174.98 293.798ZM180.011 306.946C179.837 306.896 179.712 306.597 179.563 306.423C179.787 306.323 180.011 306.099 180.21 306.124C180.409 306.149 180.559 306.423 180.833 306.672C180.459 306.796 180.21 306.971 180.011 306.946ZM182.551 276.916C182.103 276.841 182.078 276.442 182.053 276.094C182.402 276.144 182.775 276.144 182.85 276.617C182.85 276.691 182.626 276.916 182.551 276.916ZM183.871 289.715C183.323 289.64 183.174 289.266 183.199 288.793C183.224 288.42 183.273 288.046 183.722 287.996C184.245 287.947 184.544 288.295 184.618 288.743C184.693 289.266 184.319 289.54 183.871 289.715ZM189.5 284.361H189.475C189.375 284.436 189.3 284.436 189.251 284.411C189.251 284.411 189.251 284.411 189.226 284.411C188.977 284.46 188.678 284.485 188.528 284.61C188.678 284.436 188.977 284.336 189.3 284.087C189.325 284.062 189.325 284.037 189.35 284.012C189.375 283.962 189.425 283.913 189.475 283.863C189.525 283.738 189.624 283.639 189.699 283.514C189.799 283.639 189.898 283.713 189.973 283.813C190.023 283.838 190.048 283.863 190.073 283.888C189.873 284.037 189.724 284.236 189.5 284.361ZM193.036 286.975C193.036 286.975 192.862 286.901 192.862 286.876C192.837 286.726 192.862 286.602 192.887 286.453C193.011 286.527 193.136 286.577 193.285 286.652C193.211 286.776 193.136 286.876 193.036 286.975ZM202.525 277.762C202.575 277.414 202.575 276.99 203.048 276.94C203.123 276.94 203.347 277.165 203.347 277.239C203.272 277.712 202.874 277.712 202.525 277.762ZM204.866 273.654C204.742 273.604 204.592 273.529 204.443 273.479C204.517 273.33 204.542 273.131 204.642 273.081C204.742 273.031 204.916 273.18 205.04 273.23C204.991 273.38 204.941 273.529 204.866 273.654ZM366.226 10.153C366.375 10.2028 366.525 10.2775 366.649 10.3273C366.599 10.4767 366.574 10.6759 366.475 10.7257C366.375 10.7755 366.201 10.6261 366.051 10.5763C366.101 10.4269 366.176 10.2775 366.226 10.153ZM351.98 122.804V122.779C352.055 122.829 352.129 122.879 352.204 122.904C352.129 122.879 352.055 122.829 351.98 122.804ZM393.945 74.4719C393.746 74.696 393.571 74.9201 393.372 75.1442C393.223 75.3185 393.048 75.5177 392.899 75.6671C392.899 76.19 392.849 76.6631 392.177 76.6382C392.226 77.0366 392.027 77.2358 391.604 77.2109C391.654 77.8583 391.18 77.9081 390.682 77.9081C390.682 78.705 390.309 79.0536 389.537 78.9291C389.487 79.2777 389.263 79.4769 388.914 79.5018C388.814 80.0745 388.391 80.1741 387.843 80.0496C387.918 80.946 387.619 81.3694 386.648 80.971H386.573C385.851 83.0626 384.282 83.486 382.314 83.1871L382.115 83.1622C380.82 85.5776 378.205 85.2539 376.188 85.5029C371.555 86.1254 366.848 86.0258 362.39 84.1333C361.718 83.8345 361.02 83.6353 360.971 82.7638C360.423 82.9132 359.999 82.8883 359.85 82.2658C359.327 82.3654 358.904 82.3156 358.729 81.718C358.206 81.8176 357.758 81.7927 357.509 81.22C356.139 80.5476 354.919 79.701 353.997 78.456C353.723 78.2568 353.424 78.0576 353.15 77.8584L353.3 77.7836C352.901 77.8085 352.702 77.6094 352.702 77.2358C352.329 77.2358 352.154 77.0615 352.154 76.688C351.781 76.6631 351.581 76.4888 351.606 76.1153C351.208 76.1153 351.034 75.941 351.058 75.5426L351.158 75.5177C350.411 75.5675 350.361 75.0944 350.436 74.5714C350.112 74.4967 349.913 74.2727 349.888 73.924C349.539 73.8991 349.365 73.6999 349.415 73.3264L349.514 73.2766C348.717 73.3264 348.692 72.8782 348.842 72.3055C348.194 72.2059 348.145 71.7577 348.219 71.2347C347.622 71.0853 347.572 70.6122 347.646 70.1142C347.024 70.2138 346.576 69.9399 346.351 69.417C344.733 65.1091 343.711 60.7017 344.434 56.0702C344.558 55.2982 344.758 54.4267 345.604 53.9785C346.327 52.0113 346.85 49.9445 347.821 48.1019C352.852 38.6147 361.045 34.0329 371.58 33.8088C382.538 33.5598 391.205 38.1665 396.211 48.0023C400.545 56.5682 399.573 65.3083 394.568 73.5256C395.414 74.6213 394.642 74.5217 393.945 74.4719Z" fill="url(#paint0_linear_1155_105485)"/>
<path d="M337.5 142L405 126.5C426.351 182.547 397.118 238.382 358.5 277C304.184 331.316 212.237 322.61 147.5 301.5C124.5 294 106 276 126.5 277C147 278 187.5 274 216 269C244.5 264 303.5 229.5 326 197.5C344 171.9 341.167 149.833 337.5 142Z" fill="#D8BA9C"/>
<path d="M317.067 132.546C317.259 132.77 317.442 132.999 317.633 133.223C321.077 137.251 323.738 141.569 325.608 146.183C329.877 143.954 331.413 140.592 332.041 136.778C332.907 138.678 332.823 140.614 333.834 142.334C337.491 148.543 345.162 151.486 352.835 147.22C356.505 145.178 358.469 142.127 359.207 138.674C359.33 138.078 359.254 137.29 360.06 137.158C361.161 136.978 360.796 137.975 361.202 138.392C363.282 140.549 364.313 143.382 368.213 144.339C372.059 145.278 376.622 144.381 379.535 142.236C384.882 138.29 385.577 133.566 384.242 128.4C384.107 127.879 383.962 127.375 383.833 126.861C383.822 126.819 383.92 126.759 384.146 126.5C384.955 127.679 385.842 128.731 386.409 129.874C387.372 131.829 389.159 133.148 391.431 134.121C394.02 135.215 397.124 134.37 397.773 132.151C397.959 131.513 400.039 129.059 400.592 128.733M319.62 153.662C319.811 153.886 319.994 154.115 320.186 154.339C323.629 158.366 326.29 162.685 328.16 167.298C332.43 165.07 333.966 161.708 334.593 157.893C335.46 159.793 335.376 161.729 336.387 163.45C340.043 169.659 347.715 172.601 355.387 168.336C359.058 166.294 361.022 163.243 361.759 159.79C361.883 159.193 361.806 158.406 362.613 158.274C363.714 158.094 363.349 159.091 363.755 159.508C365.835 161.665 366.865 164.497 370.765 165.455C374.612 166.393 379.175 165.496 382.087 163.352C387.435 159.405 388.13 154.681 386.794 149.515C386.66 148.995 386.514 148.491 386.386 147.977C386.375 147.935 386.473 147.875 386.698 147.616C387.507 148.794 388.395 149.847 388.962 150.989C389.925 152.944 391.711 154.264 393.984 155.236C396.572 156.331 399.676 155.485 400.326 153.266C400.512 152.628 402.591 150.175 403.144 149.849M312.86 172.648C313.064 172.924 313.258 173.206 313.462 173.482C317.129 178.454 319.843 183.721 321.591 189.29C326.863 186.914 329.016 183.032 330.14 178.56C330.975 180.859 330.681 183.143 331.704 185.238C335.405 192.802 344.181 196.746 353.679 192.169C358.225 189.977 360.852 186.489 362.071 182.451C362.277 181.753 362.265 180.817 363.232 180.71C364.551 180.564 364.02 181.721 364.459 182.239C366.701 184.915 367.636 188.327 372.151 189.696C376.605 191.038 382.09 190.255 385.749 187.896C392.467 183.554 393.763 178.011 392.701 171.822C392.595 171.199 392.473 170.593 392.373 169.978C392.364 169.928 392.486 169.863 392.778 169.57C393.617 171.013 394.561 172.311 395.116 173.696C396.059 176.066 398.039 177.734 400.629 179.022C403.58 180.474 407.334 179.662 408.325 177.078C408.609 176.335 411.313 173.56 412 173.209M282.873 226.016C282.828 226.229 282.771 226.441 282.726 226.654C281.924 230.481 280.091 234.1 277.215 237.51C283.483 238.292 288.314 237.169 292.742 235.371C291.648 236.82 289.622 237.843 288.846 239.262C286.05 244.386 290.328 249.603 301.854 250.866C307.371 251.469 312.291 250.718 316.46 249.17C317.176 248.9 317.896 248.432 318.789 248.739C320.009 249.157 318.662 249.533 318.625 249.952C318.418 252.112 316.542 254.151 319.257 256.508C321.942 258.829 327.148 260.48 332.052 260.671C341.066 261.017 346.472 258.752 350.407 255.29C350.804 254.942 351.174 254.596 351.569 254.254C351.601 254.226 351.754 254.239 352.227 254.203C351.805 255.229 351.583 256.224 350.969 257.117C349.912 258.642 350.27 260.205 351.436 261.806C352.777 263.622 356.555 264.616 359.399 263.703C360.216 263.441 364.645 263.071 365.494 263.152M256.935 240.024C256.89 240.237 256.833 240.449 256.788 240.661C255.986 244.489 254.153 248.108 251.277 251.517C257.545 252.3 262.376 251.176 266.804 249.378C265.71 250.828 263.684 251.85 262.908 253.269C260.112 258.393 264.39 263.611 275.916 264.874C281.433 265.477 286.353 264.725 290.522 263.177C291.238 262.908 291.958 262.44 292.851 262.746C294.071 263.165 292.724 263.54 292.687 263.96C292.481 266.12 290.604 268.158 293.319 270.515C296.004 272.837 301.21 274.487 306.114 274.679C315.128 275.025 320.534 272.759 324.469 269.298C324.866 268.949 325.236 268.604 325.631 268.262C325.663 268.234 325.816 268.247 326.289 268.21C325.867 269.237 325.645 270.231 325.031 271.125C323.974 272.649 324.332 274.212 325.498 275.813C326.839 277.63 330.617 278.623 333.461 277.711C334.278 277.448 338.707 277.079 339.556 277.16M238.124 249.529C238.027 249.713 237.921 249.894 237.824 250.078C236.087 253.384 233.575 256.369 230.277 259.027C235.131 260.558 239.362 260.198 243.459 259.183C242.162 260.331 240.23 260.973 239.198 262.136C235.478 266.334 237.46 271.556 246.436 274.214C250.732 275.485 254.931 275.469 258.746 274.642C259.403 274.497 260.119 274.175 260.755 274.567C261.624 275.102 260.427 275.258 260.278 275.628C259.497 277.527 257.398 279.095 258.927 281.558C260.442 283.985 264.189 286.149 268.106 286.972C275.308 288.478 280.329 287.176 284.5 284.612C284.92 284.354 285.318 284.095 285.735 283.843C285.769 283.822 285.889 283.854 286.283 283.884C285.649 284.744 285.187 285.601 284.436 286.316C283.147 287.535 282.993 288.977 283.482 290.56C284.052 292.358 286.829 293.746 289.392 293.311C290.128 293.185 293.82 293.444 294.485 293.629M213.41 260.218C213.315 260.305 213.213 260.387 213.118 260.473C211.411 262.029 209.133 263.152 206.277 263.839C209.902 266.238 213.241 267.268 216.546 267.848C215.412 268.182 213.836 268.011 212.908 268.433C209.558 269.959 210.55 273.817 217.271 278.145C220.488 280.216 223.766 281.452 226.832 282.066C227.359 282.17 227.952 282.181 228.407 282.615C229.028 283.208 228.077 282.951 227.922 283.138C227.11 284.096 225.305 284.455 226.237 286.452C227.161 288.421 229.855 290.888 232.824 292.566C238.283 295.646 242.34 296.321 245.867 295.952C246.223 295.915 246.561 295.871 246.913 295.837C246.942 295.834 247.032 295.889 247.336 296.025C246.75 296.376 246.299 296.775 245.636 297C244.5 297.381 244.227 298.239 244.44 299.375C244.694 300.67 246.713 302.364 248.759 302.852C249.347 302.991 252.2 304.249 252.7 304.562M179.842 272.904C179.785 272.956 179.722 273.004 179.665 273.056C178.642 273.989 177.15 274.579 175.186 274.823C178.11 276.76 180.649 277.734 183.103 278.396C182.331 278.535 181.174 278.292 180.562 278.508C178.353 279.289 179.574 282.019 184.98 285.528C187.568 287.207 190.089 288.317 192.375 288.984C192.769 289.097 193.197 289.152 193.581 289.486C194.106 289.943 193.388 289.69 193.301 289.807C192.843 290.4 191.592 290.503 192.525 291.949C193.449 293.376 195.712 295.285 198.07 296.674C202.403 299.226 205.411 300.012 207.9 300.04C208.151 300.043 208.389 300.04 208.638 300.044C208.658 300.045 208.73 300.09 208.967 300.208C208.591 300.402 208.319 300.64 207.872 300.742C207.105 300.913 207.021 301.48 207.324 302.278C207.677 303.188 209.353 304.513 210.89 305.011C211.331 305.154 213.55 306.245 213.95 306.5M154.53 279.908C154.484 279.95 154.433 279.99 154.386 280.032C153.547 280.796 152.37 281.309 150.848 281.568C152.981 282.98 154.872 283.653 156.717 284.085C156.117 284.22 155.244 284.071 154.761 284.26C153.022 284.947 153.802 287.038 157.748 289.592C159.637 290.814 161.508 291.594 163.224 292.035C163.519 292.11 163.844 292.138 164.12 292.386C164.496 292.725 163.96 292.552 163.886 292.646C163.501 293.126 162.535 293.25 163.168 294.347C163.795 295.43 165.422 296.843 167.151 297.847C170.329 299.69 172.592 300.2 174.5 300.135C174.692 300.129 174.874 300.118 175.065 300.113C175.081 300.112 175.133 300.145 175.308 300.229C175.009 300.394 174.787 300.59 174.438 300.685C173.84 300.845 173.743 301.291 173.93 301.904C174.148 302.603 175.358 303.579 176.508 303.915C176.839 304.011 178.478 304.787 178.771 304.972M132.543 281.397C132.514 281.424 132.48 281.449 132.451 281.476C131.918 281.961 131.102 282.243 130 282.318C131.757 283.482 133.246 284.1 134.672 284.543C134.241 284.596 133.573 284.426 133.236 284.527C132.023 284.892 132.855 286.444 136.099 288.556C137.652 289.567 139.139 290.26 140.469 290.7C140.698 290.775 140.944 290.819 141.179 291.016C141.5 291.286 141.08 291.123 141.036 291.185C140.807 291.5 140.102 291.519 140.705 292.349C141.302 293.169 142.682 294.298 144.09 295.141C146.677 296.689 148.423 297.218 149.837 297.31C149.979 297.319 150.114 297.325 150.255 297.335C150.266 297.336 150.31 297.363 150.45 297.436C150.247 297.532 150.105 297.656 149.856 297.698C149.43 297.77 149.411 298.082 149.624 298.534C149.87 299.049 150.888 299.835 151.785 300.159C152.042 300.251 153.356 300.925 153.596 301.079M301.98 213.747C301.983 213.963 301.974 214.179 301.978 214.394C302.045 218.272 301.05 222.084 298.98 225.831C305.328 225.752 309.833 223.992 313.791 221.622C313.039 223.197 311.272 224.478 310.826 225.981C309.219 231.405 314.599 235.964 326.232 235.646C331.799 235.493 336.477 234.086 340.235 231.997C340.88 231.635 341.484 231.077 342.432 231.257C343.727 231.504 342.484 232.057 342.543 232.475C342.822 234.63 341.43 236.891 344.632 238.845C347.795 240.767 353.291 241.687 358.163 241.211C367.116 240.331 371.933 237.368 375.034 233.426C375.346 233.03 375.633 232.639 375.946 232.249C375.971 232.217 376.124 232.209 376.583 232.109C376.396 233.177 376.401 234.186 375.996 235.149C375.296 236.794 375.998 238.284 377.505 239.703C379.231 241.31 383.174 241.777 385.771 240.493C386.517 240.124 390.795 239.16 391.65 239.125M298.055 183.63C298.178 183.986 298.287 184.344 298.409 184.7C300.612 191.097 301.636 197.604 301.468 204.225C308.259 202.787 312.142 198.948 315.1 194.214C315.156 196.973 313.959 199.456 314.303 202.032C315.556 211.33 323.854 217.757 336.203 214.835C342.113 213.434 346.375 210.145 349.273 205.917C349.769 205.185 350.112 204.137 351.232 204.24C352.762 204.382 351.728 205.551 352.02 206.23C353.506 209.735 353.25 213.761 357.771 216.33C362.233 218.856 368.656 219.244 373.64 217.454C382.795 214.154 386.352 208.263 387.524 201.107C387.642 200.387 387.737 199.682 387.859 198.973C387.868 198.914 388.029 198.87 388.467 198.61C388.854 200.414 389.413 202.082 389.506 203.757C389.657 206.62 391.233 208.939 393.634 210.974C396.377 213.275 400.878 213.234 402.968 210.577C403.568 209.813 407.645 207.338 408.545 207.103" stroke="#25160D" stroke-width="3" stroke-linecap="round"/>
<path d="M262.422 82.6894C262.247 82.8886 262.048 83.0878 261.849 83.3119L262.422 82.6894ZM260.205 85.0301C258.686 86.549 257.366 87.6447 256.594 88.2672C250.866 92.9237 245.411 95.1647 244.067 95.7374C218.066 106.818 194.829 122.406 172.739 139.812C155.953 153.034 141.308 168.448 126.963 184.21C107.712 205.376 90.1536 227.786 76.3812 253.011C72.1224 260.83 73.9405 268.25 81.661 272.757C83.5787 273.903 83.8526 274.525 82.1093 276.194C69.1836 288.569 56.2828 300.97 43.5564 313.545C28.4639 328.461 13.6704 343.625 2.23896 361.703C-2.79185 369.646 0.993714 379.333 10.2086 381.2C12.6991 381.698 14.8658 382.421 16.7088 384.338C18.1284 385.782 20.0958 386.43 22.1132 386.828C30.008 388.372 37.2554 386.529 44.1292 382.719C54.141 377.167 63.1068 370.144 71.5745 362.5C91.9219 344.123 110.924 324.402 129.628 304.381C135.032 298.604 135.107 298.306 142.23 301.468C157.696 308.366 173.56 313.943 190.247 317.006C191.766 317.28 191.617 317.903 191.442 319.023C190.745 323.804 191.268 328.311 194.107 332.47C195.701 334.81 196.946 337.4 198.241 339.94C205.289 353.909 211.541 368.277 219.037 382.022C221.428 386.405 223.495 390.937 225.736 395.444C224.84 395.618 224.118 395.718 223.42 395.942C213.159 399.005 202.674 399.527 192.289 397.535C183.498 395.867 173.959 404.084 172.24 410.758C172.066 411.355 172.066 412.028 172.091 412.675C172.116 413.746 171.867 415.115 173.013 415.663C174.108 416.186 175.105 415.265 175.951 414.568C178.442 412.526 180.808 410.334 183.473 408.517C186.212 406.624 189.002 406.076 192.015 407.62C199.885 411.579 208.129 411.256 216.571 410.309C223.171 409.538 229.92 409.562 236.346 411.33C242.796 413.098 248.998 415.813 255.598 416.933C264.165 418.352 272.159 420.743 278.161 427.541C279.108 428.612 280.503 428.786 281.698 428.064C283.192 427.167 283.093 425.623 282.893 424.105C282.146 418.826 275.048 410.832 269.719 409.562C265.709 408.616 261.625 407.994 257.565 407.247C253.331 406.475 249.097 405.728 244.863 404.956C252.285 405.18 259.657 404.931 267.029 405.006C272.907 405.055 278.261 406.699 283.068 410.061C285.234 411.604 287.327 413.273 289.468 414.866C290.116 415.339 291.162 416.111 291.311 414.767C291.585 412.252 293.304 412.501 294.972 412.227C298.235 411.679 301.473 411.007 304.71 410.309C312.879 408.517 321.222 407.819 329.341 409.811C337.435 411.804 345.38 414.468 353.723 415.29C360.846 415.987 367.072 418.502 372.253 423.507C372.377 423.631 372.527 423.731 372.676 423.855C373.647 424.578 374.743 424.727 375.764 424.129C376.81 423.532 377.283 422.486 377.109 421.291C376.96 420.32 376.785 419.274 376.337 418.377C372.9 411.629 367.77 407.122 359.974 406.151C354.072 405.404 348.169 404.632 342.292 403.86C348.07 403.287 353.748 402.416 359.476 401.768C365.08 401.146 370.609 401.146 375.814 403.935C378.877 405.578 381.816 407.446 384.68 409.463C386.1 410.459 386.897 410.21 386.872 408.367C386.797 405.28 386.349 402.316 384.257 399.851C379.525 394.298 373.523 391.036 366.201 391.31C357.583 391.659 349.166 393.925 340.573 394.871C334.671 395.518 329.267 395.618 324.36 390.837C317.287 383.989 310.264 377.067 303.315 370.095C291.909 358.665 281.001 346.763 270.067 334.885C268.374 333.067 268.05 331.399 269.146 329.208C270.366 326.742 271.462 324.227 272.608 321.712C273.479 319.745 274.824 318.525 277.041 318.127C292.432 315.213 307.101 310.133 321.397 303.883C352.827 290.138 376.885 267.852 394.418 238.842C408.141 216.133 413.57 190.709 414.491 164.339C414.716 157.741 414.491 151.142 413.595 144.543C413.147 141.107 413.097 137.471 412.748 133.985C412.125 127.536 412.125 121.311 415.089 115.384C419.049 107.416 424.429 100.469 430.107 93.6956C432.448 90.8818 435.387 89.1138 438.923 88.4913C447.615 86.9474 456.332 85.553 465.024 84.0341C475.957 82.1416 486.94 80.3985 497.699 77.51C499.816 76.9373 499.99 76.1654 499.417 74.248C498.122 69.9153 495.084 67.0268 491.722 64.4371C477.775 53.7547 461.313 49.7954 444.452 46.9069C439.67 46.1101 435.661 44.7904 433.17 39.6857C426.944 27.0112 416.932 17.6734 404.828 10.6762C394.567 4.74985 383.36 1.73686 371.555 0.840433C355.84 -0.329905 340.573 1.38826 326.128 8.01188C308.57 16.0548 295.147 28.8041 284.911 45.0145C279.108 54.178 274.575 64.0387 269.121 73.4014C268.249 74.8955 266.107 78.6057 262.422 82.6894M260.305 84.9305C260.28 84.9554 260.23 85.0052 260.205 85.0301L260.305 84.9305ZM260.628 84.6068C260.529 84.7064 260.404 84.8309 260.305 84.9305L260.628 84.6068ZM260.877 84.3329C260.778 84.4325 260.703 84.5072 260.603 84.6068L260.877 84.3329ZM261.5 83.6855C261.301 83.9096 261.077 84.1088 260.877 84.3329L261.5 83.6855ZM261.849 83.3119C261.724 83.4364 261.6 83.561 261.5 83.6855L261.849 83.3119ZM302.195 387.152C306.204 391.011 310.339 394.771 314.921 398.731C306.927 400.598 299.455 402.665 291.784 403.91C289.842 404.234 288.447 403.586 286.853 401.943C282.445 397.461 276.767 394.995 270.441 395.22C262.148 395.518 253.854 395.643 245.561 395.643C244.888 395.643 244.266 395.593 243.693 395.469C243.519 395.444 243.394 395.394 243.245 395.344C243.021 395.319 242.796 395.244 242.597 395.145C242.423 395.07 242.248 394.995 242.074 394.921C241.875 394.846 241.701 394.746 241.526 394.622C241.277 394.497 241.053 394.323 240.829 394.149C240.555 393.95 240.306 393.701 240.082 393.452C239.609 392.954 239.185 392.356 238.787 391.634C237.915 390.065 237.068 388.496 236.246 386.928C235.4 385.359 234.578 383.765 233.781 382.172C228.924 372.635 224.516 362.898 220.108 353.137C218.14 348.804 216.173 344.472 214.181 340.164C213.931 339.616 213.658 339.093 213.408 338.545C212.587 336.977 211.69 335.408 210.793 333.864C209.922 332.345 210.021 331.249 211.565 330.129C213.608 328.61 215.65 326.991 217.368 325.124C217.443 325.049 217.518 324.974 217.592 324.875C217.866 324.576 218.165 324.277 218.439 324.028C218.713 323.754 218.987 323.53 219.286 323.331C219.56 323.082 219.859 322.908 220.158 322.733C220.357 322.609 220.556 322.509 220.755 322.41C220.905 322.335 221.054 322.235 221.229 322.161C221.727 321.961 222.25 321.787 222.798 321.687C222.972 321.638 223.146 321.613 223.321 321.563C223.545 321.538 223.744 321.513 223.968 321.488C224.267 321.438 224.591 321.414 224.915 321.439C225.288 321.414 225.662 321.414 226.06 321.439C228.177 321.538 230.294 321.588 232.411 321.638C236.645 321.712 240.904 321.663 245.137 321.663C245.362 321.663 245.561 321.663 245.735 321.687C245.785 321.687 245.835 321.687 245.885 321.712C246.084 321.712 246.233 321.762 246.383 321.812C246.482 321.812 246.557 321.862 246.657 321.912C246.756 321.961 246.856 322.036 246.955 322.136C247.055 322.235 247.13 322.335 247.205 322.459C247.254 322.559 247.329 322.708 247.354 322.858C247.404 323.007 247.429 323.182 247.454 323.381C247.479 323.58 247.479 323.779 247.479 324.003C247.479 325.273 247.578 326.468 247.827 327.639C247.927 328.137 248.051 328.635 248.201 329.108C248.3 329.481 248.425 329.805 248.549 330.154C248.699 330.552 248.848 330.951 249.023 331.349C249.421 332.196 249.894 333.042 250.467 333.839C250.592 334.063 250.741 334.287 250.94 334.487C251.189 334.885 251.513 335.283 251.862 335.657C252.21 336.105 252.634 336.528 253.057 336.952C269.768 353.361 285.309 370.891 302.195 387.152ZM266.132 89.5621C266.332 89.3629 266.531 89.1885 266.705 88.9893L266.63 88.9644M265.833 89.811C265.933 89.7114 266.033 89.6367 266.132 89.5371V89.5621M266.63 88.9644C273.778 80.274 278.66 70.3137 283.466 60.2289C294.599 36.9466 311.385 19.4662 336.514 11.2988C342.342 9.40631 348.394 8.38537 354.595 8.06166C358.156 7.88735 361.718 7.71306 365.304 7.76286C365.777 7.71306 366.25 7.73796 366.624 8.11147C380.421 8.16127 393.671 10.0786 405.451 18.1465C413.769 23.8488 419.796 31.5432 425.151 39.8351C428.04 44.3173 430.655 48.9488 433.419 53.5306C435.063 51.5136 437.08 52.2855 439.197 52.4847C455.311 54.0286 469.706 60.5277 483.827 67.8734C484.325 68.1224 484.798 68.3963 485.271 68.6952C485.57 68.8944 485.844 69.1185 486.243 69.4173C485.371 70.4133 484.3 70.1145 483.379 70.1145C476.928 70.1892 470.478 70.1145 464.003 70.239C449.558 70.5627 435.088 70.9611 420.643 71.3346C419.323 72.0817 418.725 73.501 417.654 74.4971C415.786 76.2152 416.16 77.3357 418.426 78.1077C437.08 77.1116 455.759 76.3895 474.438 76.1654C469.955 77.8089 465.248 78.1077 460.665 79.029C451.924 80.7969 443.033 81.5689 434.241 82.8886C432.149 83.1874 430.082 83.6356 428.413 85.1048C428.762 85.7024 428.438 86.1258 428.065 86.574C425.101 90.2344 422.287 93.9944 419.174 97.5054C414.74 102.461 411.553 108.113 409.087 114.214C407.892 117.202 406.796 120.24 405.6 123.228C404.455 126.092 404.754 129.005 405.202 131.943C407.045 143.796 408.514 155.624 407.468 167.701C404.928 197.656 397.681 225.944 378.578 250.073C361.942 271.089 341.819 287.598 316.988 298.33C297.587 306.672 277.589 311.951 256.569 313.869C243.195 315.089 229.821 315.089 216.497 314.143C203.397 313.196 190.346 311.13 177.72 307.195C174.756 306.274 171.618 305.9 168.804 304.481C163.324 303.087 158.169 300.845 153.213 298.206C148.73 295.816 143.699 294.745 139.216 292.379C137.971 291.732 136.477 292.205 135.107 292.23C131.546 293.226 128.831 295.467 126.191 297.957C113.639 309.884 102.581 323.231 90.1287 335.234C89.257 336.055 88.3605 336.827 87.4888 337.649L87.439 337.599C84.5002 340.737 81.7357 344.073 78.0747 346.464H78.0498C78.0747 347.211 77.7011 347.584 76.954 347.559V347.584C76.8045 347.908 76.6302 348.232 76.431 348.531C76.0574 349.128 75.6091 349.651 75.1359 350.149C73.9654 351.394 72.5458 352.415 71.2258 353.536C60.0933 363.645 48.6619 373.307 34.5657 379.183C29.9333 381.101 25.4255 381.972 20.8181 379.208C19.4981 378.412 19 377.988 20.5441 376.718C31.4525 367.779 41.8379 358.267 52.049 348.555C56.1832 344.621 59.8691 340.239 64.1279 336.429C64.6758 335.856 65.2237 335.283 65.7716 334.711C66.7429 333.466 67.8138 332.345 69.1089 331.449C70.5534 329.681 72.1473 328.087 74.0401 326.792C74.1646 326.668 74.2891 326.543 74.4137 326.419C74.6627 326.244 74.9367 326.045 75.1857 325.871L75.111 325.821C78.8218 321.015 83.4293 317.006 87.439 312.449C93.466 305.651 99.7171 299.028 105.072 291.632C105.694 290.786 106.516 289.964 106.516 288.071C103.951 290.362 101.71 292.329 99.4681 294.321C97.2515 297.409 94.1882 299.675 91.4985 302.29C73.7163 319.621 56.0587 337.026 38.1769 354.208C31.7265 360.383 25.2761 366.609 17.9789 371.813C16.8333 372.635 15.6877 373.332 14.3677 373.83C12.4749 374.502 10.607 375.025 8.93841 373.406C7.29468 371.838 7.17015 369.821 7.61844 367.804C8.73917 362.649 11.9768 358.665 15.1647 354.756C33.5196 332.295 54.0663 311.901 75.1359 292.031C80.8142 286.652 87.1899 282.045 92.7437 276.492C94.8358 274.401 97.6749 275.895 100.165 275.646C103.652 275.621 107.139 275.596 110.626 275.571C110.999 275.571 111.398 275.596 111.771 275.596C112.718 275.621 113.739 275.198 114.536 276.069C114.909 276.094 115.258 276.144 115.631 276.169C115.806 276.119 115.98 276.144 116.154 276.169C116.528 276.194 116.902 276.194 117.3 276.194C121.733 275.87 126.166 276.144 130.599 276.293C130.774 276.219 130.923 276.219 131.073 276.293C133.015 276.219 134.933 275.92 136.826 276.542C143.002 276.468 149.178 276.393 155.33 276.343C165.441 276.268 175.528 275.696 185.614 274.774C206.012 272.907 225.687 267.553 245.038 261.403C262.969 255.7 279.805 247.234 295.122 236.004C305.582 228.359 315.444 220.042 322.99 209.385C331.334 197.657 337.784 184.957 340.524 170.664C341.644 164.887 340.075 159.16 339.527 153.433C339.029 148.203 336.937 143.547 334.746 138.891C334.596 138.891 334.422 138.866 334.247 138.841C331.608 135.728 328.694 132.889 325.058 130.374C324.833 132.516 325.979 133.886 326.253 135.479C329.889 145.315 333.799 155.101 333.65 165.833C333.575 171.062 332.106 176.018 330.313 180.873C326.651 192.278 320.4 202.188 312.605 211.153C300.875 224.624 286.156 234.111 270.64 242.603C247.678 255.177 222.997 262.473 197.295 266.657C195.103 267.005 192.961 267.454 190.77 267.727C189.599 267.877 188.379 267.752 186.436 267.752C190.894 266.134 194.705 264.764 198.515 263.395C216.248 256.995 232.859 248.18 249.496 239.415C260.977 233.364 272.408 227.139 283.242 219.943C289.169 215.984 293.627 212.871 295.371 208.414C293.976 208.14 292.98 208.787 291.984 209.534C288.148 212.398 284.014 214.788 279.88 217.104C273.43 220.69 266.705 222.483 259.607 218.822C258.561 218.274 257.615 217.577 256.419 216.83C255.946 218.897 257.59 219.544 258.462 220.54C259.856 222.159 261.5 223.504 263.567 224.226C265.734 224.973 265.41 225.844 263.692 226.84C259.234 229.455 254.875 232.244 250.343 234.659C233.034 243.947 215.55 252.887 196.996 259.485C182.053 264.814 166.911 269.047 150.847 269.595C141.284 269.919 131.745 269.769 122.007 269.919C122.306 268.674 123.227 268.873 123.8 268.699C144.845 262.847 165.317 255.451 185.341 246.786C202.6 239.316 219.386 230.899 236.122 222.333C245.063 217.776 254.228 213.643 262.621 208.065C264.638 206.695 266.182 204.878 267.95 203.259C268.548 202.711 269.345 201.989 268.673 201.168C267.975 200.321 267.153 201.043 266.456 201.441C261.45 204.181 256.295 206.596 250.94 208.513C245.088 210.605 239.559 209.808 234.403 206.197C232.286 204.728 231.489 202.238 229.771 200.47C228.85 201.043 228.949 201.989 229.273 202.462C231.938 206.571 233.781 211.452 239.135 213.045C239.808 213.244 240.729 213.518 240.754 214.39C240.804 215.386 239.808 215.635 239.086 216.008C217.219 227.089 195.601 238.718 172.589 247.334C151.121 255.352 129.703 263.619 106.915 267.379C101.037 268.35 95.0848 269.022 89.1076 268.3C87.7627 268.151 85.6956 268.201 85.5462 266.881C85.3968 265.511 87.4888 265.636 88.6344 265.312C105.246 260.506 120.812 253.086 136.502 246.039C156.874 236.875 176.2 225.72 195.875 215.261C207.107 209.335 218.414 203.508 229.647 197.507C232.884 195.789 235.873 193.598 237.965 190.46C238.463 189.713 238.762 188.891 238.289 188.144C237.766 187.273 236.944 188.194 236.271 188.045C235.748 188.269 235.225 188.493 234.702 188.717L234.677 188.692C234.304 188.941 233.955 189.19 233.582 189.414C228.551 192.701 223.047 194.419 216.995 194.768C210.918 195.092 206.385 192.378 202.351 188.319C201.653 187.597 200.981 186.874 200.159 186.003C200.308 189.962 205.464 197.183 209.125 197.98C210.47 198.279 211.765 198.777 213.11 199.126C213.633 199.275 214.38 199.325 214.355 199.947C214.33 200.396 213.882 200.968 213.458 201.242C211.316 202.512 209.175 203.757 206.958 204.903C186.162 215.809 165.491 226.99 144.471 237.448C127.91 245.69 111.049 253.409 93.4162 259.211C90.2034 260.282 86.8661 261.054 83.6036 262C82.0097 262.473 81.3372 261.876 81.3123 260.307C81.3123 258.315 81.7357 256.497 82.7568 254.779C89.78 242.752 97.6251 231.298 106.292 220.391C107.438 218.972 108.708 218.2 110.551 218.548C117.699 219.943 124.473 217.926 131.172 215.959C148.655 210.779 165.043 203.11 180.658 193.672C187.906 189.315 195.402 185.306 202.749 181.097C206.535 178.906 209.922 176.242 212.362 172.532C212.985 171.61 213.533 170.739 211.939 170.241C198.391 178.06 185.216 186.501 171.518 194.021C170.497 194.594 169.576 195.465 168.281 195.391L168.231 195.316C168.231 195.714 167.982 195.839 167.683 195.889V195.864C167.509 196.038 167.309 196.187 167.11 196.337C166.986 196.436 166.836 196.461 166.687 196.461C165.068 197.407 163.623 198.628 161.606 198.653C161.407 198.877 161.232 199.101 161.033 199.325C145.019 207.268 128.707 214.265 109.878 215.834C116.03 207.293 122.231 199.424 128.881 191.954C129.08 191.506 129.429 191.257 129.927 191.332L129.902 191.257C131.371 188.568 133.688 186.551 135.73 184.359C149.228 169.942 162.901 155.699 178.093 143.074C185.839 136.674 194.705 131.794 202.973 126.092C216.845 116.53 232.037 109.408 247.03 101.913C252.584 99.1239 257.988 96.1857 262.87 92.4007C263.866 91.5541 264.862 90.6577 265.833 89.811" fill="#1F150C"/>
<path d="M279.133 171.088C278.809 171.038 278.585 171.013 278.386 170.988C278.386 171.013 278.336 171.013 278.187 171.013C278.386 171.411 278.286 171.76 278.087 171.86C278.411 171.81 278.759 171.461 279.133 171.088ZM278.162 170.963L278.062 170.938C277.813 170.913 277.539 170.913 277.39 170.963C277.614 170.988 277.888 170.988 278.187 171.013C278.187 170.988 278.162 170.988 278.162 170.963Z" fill="#664425"/>
<path d="M266.082 88.8398C265.734 89.1137 265.36 89.3877 264.987 89.6865L266.082 88.8398ZM266.73 88.3418C266.531 88.4912 266.306 88.6655 266.082 88.8398L266.73 88.3418ZM247.03 101.913C232.037 109.408 216.845 116.53 202.973 126.091C194.705 131.794 185.838 136.674 178.093 143.074C162.901 155.698 149.228 169.942 135.73 184.359C133.687 186.551 131.371 188.568 129.902 191.257L129.927 191.332C129.902 192.103 129.827 192.751 128.881 191.954C122.231 199.424 116.03 207.293 109.878 215.834C128.706 214.265 145.019 207.268 161.033 199.325C161.232 199.101 161.407 198.877 161.606 198.652C161.705 198.528 161.805 198.428 161.88 198.329C161.979 198.229 162.054 198.13 162.104 198.03C163.324 194.818 163.324 194.818 166.686 196.461C166.836 196.461 166.985 196.436 167.11 196.337C167.309 196.187 167.508 196.038 167.683 195.864C167.882 195.689 168.056 195.515 168.231 195.316L168.28 195.39C169.575 195.465 170.497 194.594 171.518 194.021C185.216 186.501 198.391 178.059 211.939 170.241C213.533 170.739 212.985 171.61 212.362 172.531C209.922 176.242 206.534 178.906 202.749 181.097C195.402 185.306 187.906 189.315 180.658 193.672C165.043 203.11 148.655 210.779 131.172 215.958C124.473 217.926 117.698 219.943 110.551 218.548C108.708 218.2 107.437 218.971 106.292 220.391C97.6249 231.297 89.7798 242.752 82.7566 254.779C81.7355 256.497 81.3121 258.315 81.3121 260.307C81.337 261.876 82.0095 262.473 83.6034 262C86.8659 261.054 90.2032 260.282 93.416 259.211C111.049 253.409 127.909 245.69 144.471 237.448C165.491 226.99 186.162 215.809 206.958 204.903C209.174 203.757 211.316 202.512 213.458 201.242C213.881 200.968 214.33 200.395 214.355 199.947C214.38 199.325 213.632 199.275 213.109 199.126C211.765 198.777 210.469 198.279 209.125 197.98C205.464 197.183 200.308 189.962 200.159 186.003C200.981 186.874 201.653 187.596 202.35 188.319C206.385 192.377 210.918 195.092 216.995 194.768C223.046 194.419 228.55 192.701 233.581 189.414C233.581 189.339 233.581 189.29 233.556 189.215C233.532 189.066 233.482 188.891 233.258 188.617H233.233C233.158 188.568 233.083 188.518 233.008 188.443C233.008 188.443 232.984 188.443 232.984 188.418C232.859 188.368 232.759 188.294 232.635 188.219L232.934 187.92L233.008 187.845C233.183 188.02 233.357 188.194 233.482 188.393C233.532 188.443 233.531 188.518 233.531 188.543C233.905 188.642 234.154 188.667 234.378 188.667C234.478 188.692 234.577 188.692 234.677 188.692C234.279 187.572 234.104 186.526 235.026 185.48C235.35 185.106 235.35 184.359 236.122 184.783C236.819 185.181 236.52 185.604 236.122 186.053C235.474 186.75 235.997 187.397 236.271 188.045C236.943 188.194 237.765 187.273 238.288 188.144C238.762 188.891 238.463 189.713 237.965 190.46C235.873 193.598 232.884 195.789 229.646 197.507C218.414 203.508 207.107 209.335 195.875 215.261C176.2 225.72 156.874 236.875 136.502 246.039C120.811 253.086 105.246 260.506 88.6342 265.312C87.4886 265.636 85.3965 265.511 85.546 266.881C85.6954 268.2 87.7625 268.151 89.1074 268.3C95.0846 269.022 101.037 268.35 106.914 267.379C129.703 263.619 151.121 255.352 172.589 247.334C195.601 238.718 217.219 227.089 239.085 216.008C239.808 215.635 240.804 215.386 240.754 214.39C240.729 213.518 239.808 213.244 239.135 213.045C233.781 211.451 231.938 206.571 229.273 202.462C228.949 201.989 228.849 201.043 229.771 200.47C231.489 202.238 232.286 204.728 234.403 206.197C239.559 209.808 245.087 210.605 250.94 208.513C256.295 206.596 261.45 204.18 266.456 201.441C267.153 201.043 267.975 200.321 268.672 201.167C269.345 201.989 268.548 202.711 267.95 203.259C266.182 204.878 264.638 206.695 262.621 208.065C254.228 213.643 245.063 217.776 236.122 222.333C219.385 230.899 202.599 239.315 185.34 246.786C165.317 255.451 144.845 262.847 123.8 268.698C123.227 268.873 122.306 268.674 122.007 269.919C131.745 269.769 141.283 269.919 150.847 269.595C166.911 269.047 182.053 264.814 196.996 259.485C215.55 252.886 233.033 243.947 250.342 234.659C254.875 232.244 259.233 229.455 263.691 226.84C265.41 225.844 265.734 224.973 263.567 224.226C261.5 223.503 259.856 222.159 258.461 220.54C257.59 219.544 255.946 218.897 256.419 216.83C257.615 217.577 258.561 218.274 259.607 218.822C266.705 222.482 273.429 220.69 279.88 217.104C284.014 214.788 288.148 212.398 291.984 209.534C292.98 208.787 293.976 208.14 295.371 208.414C293.627 212.871 289.169 215.983 283.242 219.943C272.408 227.139 260.977 233.364 249.496 239.415C232.859 248.18 216.247 256.995 198.515 263.395C194.705 264.764 190.894 266.134 186.436 267.752C188.379 267.752 189.599 267.877 190.77 267.727C192.961 267.453 195.103 267.005 197.295 266.657C222.997 262.473 247.678 255.177 270.64 242.602C286.156 234.111 300.875 224.624 312.605 211.153C320.4 202.188 326.651 192.278 330.312 180.873C332.105 176.018 333.575 171.062 333.65 165.833C333.799 155.101 329.889 145.315 326.253 135.479L266.73 88.3418M264.962 89.6865C259.856 93.5959 251.961 99.4227 247.03 101.913L264.962 89.6865ZM266.705 88.9892C266.531 89.1884 266.331 89.3627 266.132 89.562L266.705 88.9892ZM266.63 88.9643L266.705 88.9892L266.63 88.9643ZM158.592 196.635C158.443 197.208 158.244 198.03 157.297 197.158C156.475 197.258 155.504 197.432 155.429 196.411C155.429 196.262 155.429 196.063 155.479 195.839C155.479 195.814 155.504 195.764 155.504 195.739C155.728 194.718 156.6 195.415 157.123 195.341C157.97 195.241 158.916 195.341 158.592 196.635ZM228.999 131.346C229.098 131.321 229.273 131.445 229.422 131.52C229.347 131.669 229.323 131.868 229.223 131.918C229.123 131.968 228.949 131.819 228.8 131.769C228.874 131.619 228.899 131.395 228.999 131.346ZM214.828 166.256C214.504 165.709 214.38 165.036 214.529 164.14C214.454 164.09 214.404 164.04 214.33 163.99C214.404 163.866 214.454 163.741 214.504 163.617C214.579 163.766 214.629 163.916 214.678 164.065C214.703 164.115 214.703 164.14 214.703 164.19C215.102 164.314 215.426 164.364 215.724 164.414C215.401 164.364 215.052 164.339 214.703 164.289C214.504 165.086 214.579 165.734 214.828 166.256ZM217.069 161.451C216.621 161.326 216.073 161.227 216.297 160.654C216.447 160.305 216.92 160.056 217.244 159.782C217.418 160.081 217.692 160.33 217.767 160.654C217.966 161.251 217.567 161.426 217.069 161.451ZM219.236 165.161C219.136 165.211 218.962 165.061 218.813 164.987C218.887 164.862 218.912 164.638 219.012 164.588C219.111 164.538 219.286 164.688 219.435 164.762C219.361 164.887 219.336 165.111 219.236 165.161ZM220.681 175.669C220.581 175.619 220.556 175.395 220.506 175.246C220.656 175.196 220.83 175.046 220.93 175.096C221.029 175.146 221.054 175.37 221.104 175.52C220.979 175.569 220.78 175.694 220.681 175.669ZM224.317 124.647C225.388 124.996 226.035 125.643 227.006 125.618C228.152 125.618 228.526 126.465 228.526 127.486C228.526 128.208 228.301 128.681 227.504 128.855C226.334 129.08 226.259 128.333 225.96 127.536C225.612 126.565 224.167 126.291 224.317 124.647ZM228.326 176.64C227.206 177.138 226.284 176.665 226.309 175.644C226.359 173.951 228.177 175.071 229.074 174.274C229.646 173.776 230.07 175.046 230.144 175.669C230.319 177.362 229.074 176.615 228.326 176.64ZM239.932 159.757C239.982 159.807 239.982 159.882 240.007 159.957C239.957 159.981 239.857 160.031 239.832 160.006C239.783 159.957 239.783 159.882 239.758 159.807C239.808 159.782 239.907 159.757 239.932 159.757ZM239.185 179.031C239.035 178.956 238.811 178.931 238.786 178.831C238.737 178.732 238.886 178.557 238.936 178.408C239.085 178.458 239.309 178.508 239.359 178.607C239.384 178.707 239.26 178.881 239.185 179.031ZM239.583 184.583C239.359 184.285 239.409 183.911 239.758 183.662C240.679 183.015 241.451 183.264 242.099 184.384C241.202 184.011 240.53 185.804 239.583 184.583ZM244.415 185.181C244.191 185.181 243.992 184.982 243.767 184.882C243.917 184.708 244.041 184.409 244.216 184.384C244.415 184.334 244.664 184.509 244.838 184.583C244.913 185.032 244.689 185.206 244.415 185.181ZM246.731 162.496C246.706 162.422 246.681 162.372 246.681 162.297C246.756 162.322 246.856 162.347 247.005 162.397C246.856 162.447 246.781 162.472 246.731 162.496ZM254.85 135.106C255.025 135.081 255.224 135.33 255.548 135.529C255.224 135.728 255.025 135.952 254.825 135.952C254.651 135.927 254.477 135.678 254.302 135.529C254.477 135.379 254.651 135.106 254.85 135.106ZM250.766 162.92C250.666 162.97 250.492 162.82 250.367 162.77C250.417 162.621 250.467 162.496 250.542 162.347C250.691 162.397 250.816 162.472 250.965 162.521C250.915 162.671 250.865 162.895 250.766 162.92ZM250.442 154.927C249.919 154.827 249.67 155.823 249.122 155.25C248.998 155.126 249.022 154.727 249.122 154.503C249.521 153.507 250.143 154.155 250.641 154.354C250.89 154.453 251.04 154.702 251.239 154.902C250.965 154.902 250.691 154.976 250.442 154.927ZM254.427 141.356C254.526 141.306 254.701 141.455 254.85 141.505C254.8 141.654 254.751 141.879 254.651 141.903C254.551 141.953 254.377 141.804 254.228 141.754C254.302 141.605 254.327 141.381 254.427 141.356ZM254.875 188.767C254.85 188.792 254.775 188.742 254.701 188.717C254.726 188.642 254.751 188.592 254.775 188.518C254.85 188.543 254.9 188.568 254.95 188.592C254.925 188.642 254.925 188.742 254.875 188.767ZM255.124 177.088C254.651 176.864 254.601 176.391 254.551 175.918C255.149 175.993 255.647 176.192 255.523 176.939C255.523 177.014 255.199 177.138 255.124 177.088ZM255.597 140.36C255.572 140.31 255.548 140.21 255.548 140.185C255.597 140.136 255.672 140.136 255.747 140.111C255.772 140.16 255.821 140.26 255.797 140.285C255.747 140.335 255.672 140.335 255.597 140.36ZM256.071 173.976C256.22 174.026 256.444 174.05 256.469 174.15C256.519 174.25 256.419 174.524 256.32 174.548C256.195 174.598 256.046 174.449 255.896 174.399C255.946 174.25 256.021 174.1 256.071 173.976ZM258.686 190.908C257.689 191.182 257.241 190.236 256.095 189.713C257.44 189.14 258.312 188.866 258.835 189.962C258.959 190.211 258.835 190.883 258.686 190.908ZM259.059 177.985C258.984 177.96 258.91 177.96 258.86 177.91C258.835 177.885 258.885 177.786 258.91 177.736C258.984 177.761 259.059 177.786 259.134 177.81C259.109 177.86 259.084 177.935 259.059 177.985ZM260.653 190.012C260.504 189.838 260.23 189.663 260.23 189.489C260.23 189.315 260.504 189.115 260.653 188.941C260.827 189.115 260.977 189.265 261.226 189.489C260.977 189.713 260.827 189.862 260.653 190.012ZM264.513 132.192C264.538 131.395 264.538 130.549 265.46 129.876C265.609 130.947 265.983 131.893 264.513 132.192ZM255.373 216.556C255.323 216.481 255.298 216.432 255.249 216.357C255.348 216.307 255.448 216.257 255.548 216.207C255.548 216.282 255.597 216.382 255.572 216.457C255.548 216.506 255.448 216.531 255.373 216.556ZM275.745 163.717C275.023 163.692 274.525 163.393 274.55 162.596C274.6 161.6 275.322 161.202 276.194 161.226C276.941 161.251 277.19 161.899 277.19 162.571C277.19 163.542 276.567 163.741 275.745 163.717ZM277.539 171.66C277.314 171.436 277.24 171.261 277.24 171.162C277.24 171.112 277.265 171.062 277.29 171.037C277.314 171.013 277.339 170.988 277.389 170.963C277.539 170.913 277.813 170.913 278.062 170.938H278.161V170.963C278.236 170.963 278.311 170.963 278.385 170.988C278.585 171.013 278.809 171.037 279.133 171.087C278.759 171.461 278.41 171.809 278.087 171.859C277.887 171.909 277.713 171.859 277.539 171.66ZM279.282 174.001C279.058 173.976 278.784 173.752 278.684 173.552C278.61 173.378 278.709 172.93 278.834 172.88C279.307 172.731 279.407 173.179 279.581 173.478C279.656 173.777 279.631 174.075 279.282 174.001ZM282.794 174.274V174.25C282.868 174.299 282.918 174.349 282.993 174.374C282.918 174.349 282.868 174.299 282.794 174.274ZM286.504 135.803C287.326 135.877 287.476 136.5 287.526 137.098C287.526 137.197 287.027 137.446 287.003 137.396C286.554 136.973 286.056 136.525 286.504 135.803ZM287.127 142.128C285.184 142.277 285.583 139.961 284.263 139.364C284.039 139.264 285.035 138.617 285.434 138.492C287.277 138.467 288.049 139.762 288.522 140.957C288.895 141.829 287.899 142.078 287.127 142.128ZM291.759 167.352C291.61 167.302 291.386 167.252 291.361 167.153C291.311 167.053 291.461 166.879 291.51 166.754C291.66 166.804 291.809 166.854 291.934 166.929C291.884 167.078 291.809 167.203 291.759 167.352ZM297.014 114.438C296.143 115.085 295.52 114.089 294.723 113.915L297.014 114.438ZM299.878 184.808C299.704 184.658 299.679 184.359 299.629 184.11C299.629 184.085 299.903 183.986 300.127 183.886C300.227 184.11 300.401 184.334 300.401 184.559C300.377 184.857 300.127 185.032 299.878 184.808ZM301.547 177.985C301.522 177.935 301.472 177.835 301.497 177.81C301.547 177.761 301.622 177.761 301.696 177.736C301.721 177.81 301.746 177.91 301.746 177.91C301.696 177.96 301.597 177.96 301.547 177.985ZM301.323 176.366C301.198 176.291 300.999 176.167 300.8 176.018C300.949 175.843 301.074 175.544 301.248 175.52C301.447 175.495 301.771 175.669 301.846 175.843C301.995 176.142 301.721 176.291 301.323 176.366ZM304.884 154.279C304.959 154.155 305.133 154.03 305.283 154.005C305.582 153.955 305.781 154.08 305.781 154.503C305.607 154.603 305.382 154.777 305.183 154.777C304.884 154.802 304.685 154.578 304.884 154.279ZM305.333 189.663C305.457 189.589 305.557 189.539 305.656 189.464C305.781 189.738 305.905 190.037 306.03 190.311C305.806 190.087 305.582 189.887 305.333 189.663ZM308.944 153.034C308.072 152.735 307.973 151.689 307.45 151.067C307.2 150.768 307.574 150.295 307.923 150.245C309.118 150.096 309.268 151.241 309.666 151.938C309.915 152.337 309.542 152.785 308.944 153.034ZM310.837 186.825C311.036 186.949 311.235 187.098 311.409 187.223C311.335 187.447 311.26 187.572 311.21 187.721C311.011 187.572 310.787 187.422 310.662 187.223C310.612 187.173 310.762 186.949 310.837 186.825ZM310.787 189.24C311.858 188.468 312.555 189.24 313.751 189.514C312.281 190.609 311.584 189.589 310.787 189.24ZM317.237 177.86C317.138 177.885 316.963 177.761 316.814 177.686C316.889 177.561 316.913 177.337 317.013 177.288C317.113 177.263 317.287 177.387 317.436 177.462C317.362 177.586 317.337 177.81 317.237 177.86ZM329.092 172.556C329.366 173.204 330.113 173.801 329.192 174.424C328.345 175.022 328.195 173.876 327.647 173.652C327.598 173.627 327.523 173.602 327.448 173.602C327.423 173.602 327.423 173.602 327.423 173.602C327.374 173.627 327.349 173.677 327.299 173.727C327.249 173.752 327.224 173.801 327.199 173.851C327.149 173.926 327.124 174.025 327.124 174.125C327.124 174.598 327.598 175.171 327.05 175.744C326.402 173.976 323.887 174.349 323.389 172.407C324.26 171.286 324.659 172.83 325.331 172.581C326.004 172.282 327.872 173.478 326.875 171.087C326.228 169.543 328.27 168.971 329.117 168.124C330.263 166.929 330.263 169.245 331.234 169.269C329.217 169.693 328.22 170.539 329.092 172.556Z" fill="#664425"/>
<path d="M189.326 284.086H189.301C189.301 284.111 189.276 284.111 189.276 284.136C189.201 284.261 189.201 284.36 189.226 284.41C189.251 284.41 189.251 284.41 189.251 284.41C189.301 284.435 189.376 284.435 189.475 284.36V283.962C189.425 284.012 189.376 284.037 189.326 284.086ZM189.326 284.086H189.301C189.301 284.111 189.276 284.111 189.276 284.136C189.201 284.261 189.201 284.36 189.226 284.41C189.251 284.41 189.251 284.41 189.251 284.41C189.301 284.435 189.376 284.435 189.475 284.36V283.962C189.425 284.012 189.376 284.037 189.326 284.086ZM189.699 283.514C189.625 283.638 189.525 283.738 189.475 283.862C189.5 283.862 189.5 283.887 189.475 283.962C189.724 283.763 189.874 283.763 189.973 283.812C189.899 283.713 189.799 283.638 189.699 283.514ZM189.326 284.086H189.301C189.301 284.111 189.276 284.111 189.276 284.136C189.201 284.261 189.201 284.36 189.226 284.41C189.251 284.41 189.251 284.41 189.251 284.41C189.301 284.435 189.376 284.435 189.475 284.36V283.962C189.425 284.012 189.376 284.037 189.326 284.086Z" fill="#8C6336"/>
<path d="M486.243 69.4168C485.371 70.4128 484.3 70.1141 483.379 70.1141C476.928 70.1888 470.478 70.114 464.003 70.2385C449.558 70.5622 435.088 70.9607 420.643 71.3342C422.81 66.603 426.745 63.1418 429.534 58.8589C430.73 57.0162 432.124 55.2981 433.419 53.5301C435.063 51.5131 437.08 52.2851 439.197 52.4843C455.311 54.0281 469.706 60.5272 483.827 67.873C484.325 68.122 484.798 68.3959 485.272 68.6947C485.57 68.8939 485.844 69.118 486.243 69.4168Z" fill="#7B532A"/>
<path d="M155.504 195.739C155.504 195.764 155.479 195.814 155.479 195.839C155.43 196.063 155.43 196.262 155.43 196.412C155.504 197.432 156.476 197.258 157.298 197.159C156.55 196.561 155.953 196.088 155.504 195.739Z" fill="#7B532A"/>
<path d="M474.438 76.166C469.955 77.8095 465.248 78.1083 460.665 79.0296C451.924 80.7976 443.033 81.5695 434.241 82.8892C432.149 83.188 430.082 83.6363 428.413 85.1054C425.699 84.1094 423.931 81.5695 421.166 80.6482C420.245 79.8015 419.348 78.9549 418.427 78.1083C437.08 77.1122 455.759 76.3901 474.438 76.166Z" fill="#7B532A"/>
<path d="M166.687 196.461C165.068 197.407 163.624 198.627 161.606 198.652C161.706 198.528 161.805 198.428 161.88 198.328C161.98 198.229 162.055 198.129 162.104 198.03C163.325 194.817 163.325 194.817 166.687 196.461Z" fill="#82592E"/>
<path d="M262.87 92.4007C263.965 91.4545 265.061 90.4833 266.132 89.5371L262.87 92.4007Z" fill="#8C6336"/>
<path d="M236.272 188.045C235.749 188.27 235.226 188.494 234.703 188.718L234.678 188.693C234.279 187.572 234.105 186.526 235.026 185.481C235.35 185.107 235.35 184.36 236.122 184.783C236.82 185.182 236.521 185.605 236.122 186.053C235.475 186.751 235.998 187.398 236.272 188.045Z" fill="#82592E"/>
<path d="M110.625 275.57C107.139 276.492 103.652 276.342 100.165 275.645C103.652 275.62 107.139 275.595 110.625 275.57Z" fill="#82592E"/>
<path d="M114.536 276.069C113.415 276.99 112.643 276.019 111.771 275.596C112.718 275.621 113.739 275.197 114.536 276.069Z" fill="#82592E"/>
<path d="M129.927 191.331C129.902 192.103 129.827 192.751 128.881 191.954C129.08 191.506 129.429 191.257 129.927 191.331Z" fill="#82592E"/>
<path d="M78.0501 346.463C78.075 347.21 77.7014 347.584 76.9542 347.559C76.9044 346.787 77.278 346.414 78.0501 346.463Z" fill="#82592E"/>
<path d="M234.677 188.691C234.304 188.94 233.955 189.189 233.581 189.414C233.581 189.339 233.581 189.289 233.557 189.214C233.557 189.04 233.557 188.841 233.532 188.642C233.806 188.667 234.08 188.667 234.378 188.667C234.478 188.691 234.578 188.691 234.677 188.691Z" fill="#82592E"/>
<path d="M366.624 8.11095C366.126 8.18566 365.653 8.18566 365.304 7.76234C365.777 7.71254 366.25 7.73744 366.624 8.11095Z" fill="#82592E"/>
<path d="M168.231 195.315C168.231 195.714 167.982 195.838 167.683 195.888V195.863C167.882 195.689 168.056 195.515 168.231 195.315Z" fill="#82592E"/>
<path d="M116.154 276.168C115.98 276.417 115.806 276.417 115.631 276.168C115.806 276.119 115.98 276.144 116.154 276.168Z" fill="#82592E"/>
<path d="M334.796 138.89C334.771 138.89 334.771 138.89 334.746 138.89C334.596 138.89 334.422 138.865 334.248 138.84C334.472 138.567 334.646 138.542 334.796 138.89Z" fill="#A87E4D"/>
<path d="M180.833 306.672C180.459 306.796 180.21 306.971 180.011 306.946C179.836 306.896 179.712 306.597 179.562 306.423C179.787 306.323 180.011 306.099 180.21 306.124C180.409 306.149 180.559 306.423 180.833 306.672Z" fill="#8C6336"/>
<path d="M205.04 273.231C204.991 273.38 204.941 273.53 204.866 273.654C204.742 273.604 204.592 273.53 204.443 273.48C204.517 273.33 204.542 273.131 204.642 273.081C204.742 273.032 204.916 273.181 205.04 273.231Z" fill="#8C6336"/>
<path d="M193.285 286.652C193.211 286.777 193.136 286.876 193.036 286.976C193.036 286.976 192.862 286.901 192.862 286.876C192.837 286.727 192.862 286.603 192.887 286.453C193.011 286.528 193.136 286.578 193.285 286.652Z" fill="#8C6336"/>
<path d="M352.204 122.905C352.13 122.88 352.055 122.83 351.98 122.805V122.78C352.055 122.83 352.13 122.88 352.204 122.905Z" fill="#8C6336"/>
<path d="M228.327 176.639C227.206 177.137 226.284 176.664 226.309 175.643C226.359 173.95 228.177 175.07 229.074 174.273C229.646 173.775 230.07 175.045 230.145 175.668C230.319 177.361 229.074 176.614 228.327 176.639Z" fill="#664425"/>
<path d="M277.19 162.57C277.19 163.541 276.567 163.741 275.746 163.716C275.023 163.691 274.525 163.392 274.55 162.595C274.6 161.599 275.322 161.201 276.194 161.226C276.941 161.251 277.19 161.898 277.19 162.57Z" fill="#664425"/>
<path d="M258.686 190.908C257.69 191.182 257.242 190.236 256.096 189.713C257.441 189.14 258.312 188.866 258.835 189.962C258.96 190.211 258.835 190.883 258.686 190.908Z" fill="#664425"/>
<path d="M242.099 184.384C241.203 184.01 240.53 185.803 239.584 184.583C239.36 184.284 239.41 183.91 239.758 183.661C240.68 183.014 241.452 183.263 242.099 184.384Z" fill="#664425"/>
<path d="M261.226 189.488C260.977 189.712 260.828 189.862 260.653 190.011C260.504 189.837 260.23 189.663 260.23 189.488C260.23 189.314 260.504 189.115 260.653 188.94C260.828 189.115 260.977 189.264 261.226 189.488Z" fill="#664425"/>
<path d="M244.839 184.583C244.913 185.031 244.689 185.206 244.415 185.181C244.191 185.181 243.992 184.981 243.768 184.882C243.917 184.708 244.042 184.409 244.216 184.384C244.415 184.334 244.664 184.508 244.839 184.583Z" fill="#664425"/>
<path d="M300.402 184.558C300.377 184.857 300.128 185.031 299.879 184.807C299.704 184.658 299.679 184.359 299.63 184.11C299.63 184.085 299.903 183.985 300.128 183.886C300.227 184.11 300.402 184.334 300.402 184.558Z" fill="#664425"/>
<path d="M221.104 175.519C220.98 175.569 220.781 175.694 220.681 175.669C220.581 175.619 220.556 175.395 220.507 175.245C220.656 175.196 220.83 175.046 220.93 175.096C221.03 175.146 221.055 175.37 221.104 175.519Z" fill="#664425"/>
<path d="M239.36 178.607C239.385 178.707 239.26 178.881 239.185 179.031C239.036 178.956 238.812 178.931 238.787 178.832C238.737 178.732 238.886 178.558 238.936 178.408C239.086 178.458 239.31 178.508 239.36 178.607Z" fill="#664425"/>
<path d="M233.532 188.543C233.557 188.593 233.557 188.618 233.532 188.643C233.482 188.692 233.382 188.667 233.258 188.618H233.233C233.158 188.568 233.083 188.518 233.009 188.443C233.009 188.443 232.984 188.443 232.984 188.418C232.859 188.369 232.76 188.294 232.635 188.219L233.009 187.846C233.183 188.02 233.357 188.194 233.482 188.394C233.532 188.443 233.532 188.518 233.532 188.543Z" fill="#82592E"/>
<path d="M259.134 177.81C259.109 177.86 259.084 177.935 259.059 177.984C258.984 177.959 258.91 177.959 258.86 177.91C258.835 177.885 258.885 177.785 258.91 177.735C258.984 177.76 259.059 177.785 259.134 177.81Z" fill="#664425"/>
<path d="M254.95 188.593C254.925 188.643 254.925 188.743 254.875 188.768C254.85 188.792 254.776 188.743 254.701 188.718C254.726 188.643 254.751 188.593 254.776 188.519C254.85 188.543 254.9 188.568 254.95 188.593Z" fill="#664425"/>
<path d="M255.573 216.456C255.548 216.506 255.448 216.531 255.373 216.556C255.324 216.481 255.299 216.431 255.249 216.356C255.348 216.307 255.448 216.257 255.548 216.207C255.548 216.282 255.597 216.381 255.573 216.456Z" fill="#1F150C"/>
<path d="M214.703 164.19V164.29C214.653 164.24 214.579 164.19 214.529 164.14C214.454 164.09 214.404 164.041 214.33 163.991C214.404 163.866 214.454 163.742 214.504 163.617C214.579 163.767 214.629 163.916 214.678 164.065C214.703 164.115 214.703 164.14 214.703 164.19Z" fill="#664425"/>
<path d="M247.005 162.397C246.856 162.447 246.781 162.472 246.731 162.497C246.707 162.422 246.682 162.373 246.682 162.298C246.756 162.323 246.856 162.348 247.005 162.397Z" fill="#664425"/>
<path d="M240.007 159.957C239.957 159.982 239.858 160.032 239.833 160.007C239.783 159.957 239.783 159.882 239.758 159.808C239.808 159.783 239.907 159.758 239.932 159.758C239.982 159.808 239.982 159.882 240.007 159.957Z" fill="#664425"/>
<path d="M251.787 177.039C251.712 176.989 251.662 176.964 251.588 176.914C251.662 176.939 251.737 176.989 251.787 177.039Z" fill="#664425"/>
<path d="M282.993 174.375C282.918 174.35 282.868 174.3 282.794 174.275V174.25C282.868 174.3 282.918 174.35 282.993 174.375Z" fill="#664425"/>
<path d="M396.211 48.0019C391.205 38.166 382.538 33.5594 371.58 33.8084C361.045 34.0325 352.851 38.6142 347.821 48.1014C346.849 49.9441 346.326 52.0109 345.604 53.978C344.981 59.5309 345.43 64.9344 347.696 70.1138C347.671 70.1138 347.671 70.1138 347.646 70.1138C347.846 70.4873 348.045 70.8857 348.269 71.2592C348.443 71.5829 348.667 71.9067 348.842 72.2553C348.842 72.2802 348.867 72.305 348.867 72.305H348.892C349.091 72.6287 349.29 72.9525 349.514 73.2762L349.415 73.326C349.813 73.326 349.913 73.6248 349.987 73.9236L349.888 73.8987V73.9236C349.888 73.9236 349.888 73.9236 349.913 73.9236C350.087 74.1228 350.286 74.3469 350.436 74.5461V74.571H350.461C350.685 74.8698 350.934 75.2185 351.158 75.5173L351.058 75.5422C351.432 75.5422 351.606 75.7911 351.656 76.1149H351.631C351.805 76.2892 351.98 76.4635 352.154 76.6378C352.179 76.6627 352.179 76.6627 352.204 76.6876C352.378 76.8619 352.528 77.0113 352.702 77.2105V77.2354H352.752C352.926 77.4097 353.125 77.6089 353.3 77.7832L353.15 77.8579C353.624 77.7832 353.873 78.0571 353.997 78.4555C354.919 79.7006 356.139 80.5472 357.509 81.2195C358.057 80.9954 358.405 81.2195 358.704 81.6428C359.128 81.7175 359.576 81.7673 359.825 82.1907C360.248 82.2654 360.697 82.2903 360.97 82.7136C367.969 85.3033 375.017 85.2535 382.115 83.1618L382.314 83.1867C383.584 82.1409 385.079 81.5433 386.573 80.9706H386.648C387.046 80.6717 387.445 80.348 387.843 80.0243C388.017 79.5014 388.466 79.4516 388.939 79.3769C388.939 79.4018 388.939 79.4516 388.914 79.4765C389.088 79.3022 389.312 79.103 389.512 78.9287C389.487 78.9287 389.487 78.9287 389.462 78.9287C389.835 78.605 390.234 78.2563 390.632 77.9077C390.657 77.8828 390.657 77.8828 390.682 77.8579C390.981 77.6089 391.305 77.3599 391.604 77.1358C391.629 76.837 391.803 76.6627 392.127 76.6378L392.152 76.6129C392.376 76.3141 392.6 76.0153 392.849 75.7165C392.874 75.6916 392.874 75.6916 392.899 75.6667C393.048 75.5173 393.222 75.318 393.372 75.1437C393.571 74.9196 393.745 74.6955 393.945 74.4714H393.845C394.094 74.1477 394.318 73.8489 394.567 73.5252C399.573 65.3079 400.545 56.5677 396.211 48.0019ZM392.45 62.6435C392.201 63.9882 391.778 65.3079 391.18 66.5778C391.081 66.8269 390.956 67.0759 390.807 67.3249C390.408 68.047 389.96 68.7691 389.462 69.4663C389.462 69.4912 389.462 69.4913 389.437 69.4913C389.113 69.9395 388.764 70.3877 388.391 70.811C388.366 70.8359 388.366 70.8359 388.366 70.8359C388.167 71.0351 387.968 71.2592 387.768 71.4584C385.726 73.575 383.111 75.2682 380.122 76.2892C379.55 76.4884 378.952 76.6876 378.329 76.8121C378.304 76.8121 378.279 76.837 378.279 76.837C376.686 77.2354 374.992 77.4346 373.224 77.4346C372.601 77.4346 371.979 77.3848 371.356 77.3101C370.434 77.2105 369.538 77.0362 368.616 76.7623C368.019 76.588 367.421 76.3888 366.848 76.1647C366.275 75.9406 365.702 75.6916 365.13 75.3928C364.856 75.2433 364.557 75.0939 364.283 74.9445C362.639 74.0232 361.07 72.8529 359.725 71.5082C359.277 71.06 358.829 70.6118 358.43 70.1387C358.007 69.6656 357.608 69.1676 357.26 68.6695C356.886 68.1466 356.537 67.6237 356.214 67.0759C355.89 66.553 355.616 66.0051 355.342 65.4573C355.217 65.1585 355.093 64.8597 354.968 64.5858C354.844 64.287 354.744 64.0131 354.645 63.7143C354.022 61.9463 353.673 60.1037 353.698 58.2361C353.698 57.6634 353.748 57.0906 353.798 56.5428C353.922 55.4223 354.171 54.3267 354.52 53.2559C355.193 51.1643 356.288 49.1971 357.633 47.5038C357.982 47.0805 358.331 46.6572 358.704 46.2837C362.091 42.7229 366.724 40.681 371.057 41.3782C377.931 41.3533 383.609 43.3454 387.42 46.956C388.54 48.0268 389.512 49.222 390.284 50.5417C390.458 50.8157 390.607 51.0646 390.732 51.3386C391.155 52.1852 391.504 53.0318 391.803 53.9531C392.401 55.8705 392.699 57.9622 392.675 60.2282C392.675 60.776 392.625 61.2989 392.575 61.8467C392.55 62.1206 392.5 62.3945 392.45 62.6435Z" fill="#F4EEE3"/>
<path d="M382.115 83.1621C380.82 85.5774 378.205 85.2537 376.188 85.5027C371.555 86.1253 366.848 86.0257 362.39 84.1332C361.718 83.8344 361.02 83.6352 360.971 82.7636V82.7388C360.971 82.7139 360.971 82.7139 360.971 82.7139C367.969 85.3036 375.017 85.2537 382.115 83.1621Z" fill="#7B532A"/>
<path d="M347.696 70.1143C347.671 70.1143 347.671 70.1143 347.646 70.1143C347.024 70.2139 346.575 69.9399 346.351 69.417C344.732 65.1092 343.711 60.7018 344.434 56.0702C344.558 55.2983 344.757 54.4267 345.604 53.9785C344.981 59.5314 345.43 64.9349 347.696 70.1143Z" fill="#7B532A"/>
<path d="M386.573 80.9707C385.851 83.0624 384.282 83.4857 382.314 83.1869C383.584 82.141 385.079 81.5434 386.573 80.9707Z" fill="#7B532A"/>
<path d="M393.945 74.4716H393.845C394.094 74.1479 394.318 73.8491 394.567 73.5254C395.414 74.621 394.642 74.5214 393.945 74.4716Z" fill="#7B532A"/>
<path d="M366.649 10.3276C366.599 10.477 366.574 10.6762 366.475 10.726C366.375 10.7758 366.201 10.6264 366.051 10.5766C366.101 10.4272 366.176 10.2778 366.225 10.1533C366.375 10.2031 366.524 10.2778 366.649 10.3276Z" fill="#82592E"/>
<path d="M387.843 80.0244V80.0493C387.918 80.9457 387.619 81.3691 386.647 80.9707C387.046 80.6718 387.444 80.3481 387.843 80.0244Z" fill="#7B532A"/>
<path d="M390.682 77.8594C390.682 77.8843 390.682 77.8842 390.682 77.9091C390.682 78.706 390.309 79.0546 389.537 78.9301H389.512C389.487 78.9301 389.487 78.9301 389.462 78.9301C389.836 78.6064 390.234 78.2578 390.633 77.9091C390.657 77.8842 390.657 77.8843 390.682 77.8594Z" fill="#7B532A"/>
<path d="M360.97 82.7143C360.97 82.7143 360.97 82.7143 360.97 82.7392V82.7641C360.422 82.9135 359.999 82.8886 359.85 82.2661C359.85 82.2163 359.825 82.2163 359.825 82.2163V82.1914C360.248 82.2661 360.696 82.291 360.97 82.7143Z" fill="#7B532A"/>
<path d="M358.754 81.7173H358.729C358.206 81.8169 357.758 81.792 357.509 81.2193C358.057 80.9952 358.406 81.2193 358.704 81.6426C358.729 81.6675 358.729 81.6924 358.754 81.7173Z" fill="#7B532A"/>
<path d="M349.515 73.2777C348.718 73.3275 348.693 72.8793 348.842 72.3066C348.842 72.2817 348.842 72.2817 348.842 72.2568C348.842 72.2817 348.867 72.3066 348.867 72.3066H348.892C349.091 72.6303 349.291 72.954 349.515 73.2777Z" fill="#7B532A"/>
<path d="M388.939 79.377C388.939 79.4019 388.939 79.4517 388.914 79.4766V79.5015C388.814 80.0742 388.391 80.1738 387.843 80.0493V80.0244C388.017 79.5015 388.466 79.4517 388.939 79.377Z" fill="#7B532A"/>
<path d="M392.899 75.667C392.899 76.1899 392.849 76.663 392.177 76.6381C392.152 76.6381 392.127 76.6381 392.127 76.6381L392.152 76.6132C392.376 76.3144 392.6 76.0156 392.849 75.7168C392.874 75.6919 392.874 75.6919 392.899 75.667Z" fill="#7B532A"/>
<path d="M391.604 77.1367V77.2114C391.654 77.8588 391.18 77.9086 390.682 77.9086C390.657 77.9086 390.657 77.9086 390.632 77.9086C390.657 77.8837 390.657 77.8838 390.682 77.8589C390.981 77.6099 391.305 77.3608 391.604 77.1367Z" fill="#7B532A"/>
<path d="M359.85 82.2661C359.327 82.3657 358.904 82.3159 358.729 81.7183C358.729 81.6934 358.704 81.6685 358.704 81.6436C359.128 81.7183 359.576 81.7681 359.825 82.1914V82.2163C359.825 82.2163 359.85 82.2163 359.85 82.2661Z" fill="#7B532A"/>
<path d="M351.158 75.5185C350.411 75.5683 350.361 75.0952 350.436 74.5723H350.461C350.685 74.8711 350.934 75.2197 351.158 75.5185Z" fill="#7B532A"/>
<path d="M348.867 72.3051C348.842 72.3051 348.842 72.3051 348.842 72.3051C348.194 72.2055 348.144 71.7573 348.219 71.2344C348.219 71.2593 348.244 71.2593 348.269 71.2593C348.443 71.583 348.667 71.9067 348.842 72.2553C348.842 72.2802 348.867 72.3051 348.867 72.3051Z" fill="#7B532A"/>
<path d="M348.269 71.2597C348.244 71.2597 348.219 71.2597 348.219 71.2348C347.622 71.0854 347.572 70.6123 347.647 70.1143C347.846 70.4878 348.045 70.8862 348.269 71.2597Z" fill="#7B532A"/>
<path d="M389.537 78.9297C389.487 79.2783 389.263 79.4775 388.914 79.5024V79.4775C389.088 79.3032 389.313 79.104 389.512 78.9297H389.537Z" fill="#7B532A"/>
<path d="M353.997 78.4566C353.723 78.2574 353.424 78.0582 353.15 77.859C353.624 77.7843 353.873 78.0582 353.997 78.4566Z" fill="#7B532A"/>
<path d="M353.3 77.7841C352.902 77.809 352.702 77.6098 352.702 77.2363H352.752C352.926 77.4106 353.126 77.6098 353.3 77.7841Z" fill="#7B532A"/>
<path d="M392.177 76.6133V76.6382C392.226 77.0366 392.027 77.2358 391.604 77.2109V77.1362C391.629 76.8374 391.803 76.6631 392.127 76.6382L392.152 76.6133H392.177Z" fill="#7B532A"/>
<path d="M352.702 77.2114V77.2363C352.329 77.2363 352.154 77.062 352.154 76.6885C352.154 76.6636 352.154 76.6636 352.154 76.6387C352.179 76.6636 352.179 76.6636 352.204 76.6885C352.379 76.8628 352.528 77.0122 352.702 77.2114Z" fill="#7B532A"/>
<path d="M352.204 76.687C352.179 76.687 352.179 76.687 352.154 76.687C351.781 76.6621 351.581 76.4878 351.606 76.1143H351.631C351.805 76.2886 351.98 76.4629 352.154 76.6372C352.179 76.6621 352.179 76.6621 352.204 76.687Z" fill="#7B532A"/>
<path d="M351.656 76.1157H351.606C351.208 76.1157 351.033 75.9414 351.058 75.543C351.432 75.543 351.606 75.792 351.656 76.1157Z" fill="#7B532A"/>
<path d="M350.436 74.5463V74.5712C350.112 74.4965 349.913 74.2724 349.888 73.9238C349.888 73.9238 349.888 73.9238 349.913 73.9238C350.087 74.123 350.286 74.3471 350.436 74.5463Z" fill="#7B532A"/>
<path d="M349.987 73.9238H349.913C349.888 73.9238 349.888 73.9238 349.888 73.9238C349.539 73.8989 349.365 73.6997 349.415 73.3262C349.813 73.3262 349.913 73.625 349.987 73.9238Z" fill="#7B532A"/>
<path d="M329.092 172.556C329.366 173.203 330.114 173.801 329.192 174.424C328.345 175.021 328.196 173.876 327.648 173.652C327.598 173.627 327.523 173.602 327.449 173.602C327.424 173.602 327.424 173.602 327.424 173.602C327.374 173.627 327.349 173.677 327.299 173.726C327.249 173.751 327.225 173.801 327.2 173.851C327.15 173.926 327.125 174.025 327.125 174.125C327.125 174.598 327.598 175.171 327.05 175.743C326.403 173.975 323.887 174.349 323.389 172.407C324.261 171.286 324.659 172.83 325.332 172.581C326.004 172.282 327.872 173.477 326.876 171.087C326.228 169.543 328.271 168.97 329.117 168.124C330.263 166.928 330.263 169.244 331.234 169.269C329.217 169.692 328.221 170.539 329.092 172.556Z" fill="#664425"/>
<path d="M287.127 142.127C285.185 142.277 285.583 139.961 284.263 139.363C284.039 139.264 285.035 138.616 285.434 138.492C287.277 138.467 288.049 139.762 288.522 140.957C288.895 141.828 287.899 142.077 287.127 142.127Z" fill="#664425"/>
<path d="M228.526 127.486C228.526 128.208 228.301 128.681 227.504 128.856C226.334 129.08 226.259 128.333 225.96 127.536C225.612 126.565 224.167 126.291 224.317 124.647C225.388 124.996 226.035 125.643 227.006 125.619C228.152 125.619 228.526 126.465 228.526 127.486Z" fill="#664425"/>
<path d="M308.944 153.035C308.072 152.736 307.973 151.69 307.45 151.067C307.201 150.769 307.574 150.296 307.923 150.246C309.118 150.096 309.268 151.242 309.666 151.939C309.915 152.337 309.542 152.786 308.944 153.035Z" fill="#664425"/>
<path d="M297.015 114.438C296.143 115.085 295.52 114.089 294.724 113.915L297.015 114.438Z" fill="#8C6336"/>
<path d="M313.751 189.514C312.281 190.61 311.584 189.589 310.787 189.24C311.858 188.468 312.555 189.24 313.751 189.514Z" fill="#664425"/>
<path d="M217.07 161.451C216.621 161.326 216.073 161.226 216.297 160.654C216.447 160.305 216.92 160.056 217.244 159.782C217.418 160.081 217.692 160.33 217.767 160.654C217.966 161.251 217.568 161.426 217.07 161.451Z" fill="#664425"/>
<path d="M287.526 137.098C287.526 137.197 287.027 137.446 287.003 137.396C286.554 136.973 286.056 136.525 286.504 135.803C287.326 135.877 287.476 136.5 287.526 137.098Z" fill="#8C6336"/>
<path d="M251.239 154.902C250.965 154.902 250.691 154.976 250.442 154.927C249.919 154.827 249.67 155.823 249.122 155.25C248.998 155.126 249.023 154.727 249.122 154.503C249.521 153.507 250.143 154.155 250.641 154.354C250.89 154.454 251.04 154.703 251.239 154.902Z" fill="#664425"/>
<path d="M264.513 132.191C264.538 131.394 264.538 130.547 265.46 129.875C265.609 130.946 265.983 131.892 264.513 132.191Z" fill="#664425"/>
<path d="M279.282 174.001C279.058 173.976 278.784 173.752 278.685 173.553C278.61 173.378 278.71 172.93 278.834 172.88C279.307 172.731 279.407 173.179 279.581 173.478C279.656 173.777 279.631 174.075 279.282 174.001Z" fill="#664425"/>
<path d="M279.133 171.088C278.759 171.461 278.411 171.81 278.087 171.86C277.888 171.909 277.713 171.86 277.539 171.66C277.315 171.436 277.24 171.262 277.24 171.162C277.24 171.113 277.265 171.063 277.29 171.038C277.315 171.013 277.34 170.988 277.39 170.963C277.539 170.913 277.813 170.913 278.062 170.938H278.162V170.963C278.236 170.963 278.311 170.963 278.386 170.988C278.585 171.013 278.809 171.038 279.133 171.088Z" fill="#664425"/>
<path d="M301.323 176.367C301.199 176.292 300.999 176.167 300.8 176.018C300.95 175.844 301.074 175.545 301.248 175.52C301.448 175.495 301.771 175.669 301.846 175.844C301.996 176.142 301.722 176.292 301.323 176.367Z" fill="#664425"/>
<path d="M255.548 135.529C255.224 135.728 255.025 135.952 254.825 135.952C254.651 135.927 254.477 135.678 254.302 135.529C254.477 135.379 254.651 135.105 254.85 135.105C255.025 135.08 255.224 135.329 255.548 135.529Z" fill="#664425"/>
<path d="M305.781 154.503C305.607 154.603 305.382 154.777 305.183 154.777C304.884 154.802 304.685 154.578 304.884 154.279C304.959 154.155 305.133 154.03 305.283 154.005C305.582 153.956 305.781 154.08 305.781 154.503Z" fill="#664425"/>
<path d="M254.85 141.505C254.801 141.655 254.751 141.879 254.651 141.904C254.552 141.953 254.377 141.804 254.228 141.754C254.302 141.605 254.327 141.381 254.427 141.356C254.527 141.306 254.701 141.455 254.85 141.505Z" fill="#664425"/>
<path d="M250.965 162.521C250.915 162.67 250.866 162.894 250.766 162.919C250.666 162.969 250.492 162.82 250.368 162.77C250.417 162.621 250.467 162.496 250.542 162.347C250.691 162.396 250.816 162.471 250.965 162.521Z" fill="#664425"/>
<path d="M311.41 187.224C311.335 187.448 311.26 187.572 311.21 187.722C311.011 187.572 310.787 187.423 310.663 187.224C310.613 187.174 310.762 186.95 310.837 186.825C311.036 186.95 311.235 187.099 311.41 187.224Z" fill="#664425"/>
<path d="M317.437 177.462C317.362 177.586 317.337 177.81 317.237 177.86C317.138 177.885 316.964 177.761 316.814 177.686C316.889 177.561 316.914 177.337 317.013 177.287C317.113 177.263 317.287 177.387 317.437 177.462Z" fill="#664425"/>
<path d="M291.934 166.929C291.884 167.079 291.81 167.203 291.76 167.352C291.61 167.303 291.386 167.253 291.361 167.153C291.312 167.054 291.461 166.879 291.511 166.755C291.66 166.805 291.81 166.854 291.934 166.929Z" fill="#664425"/>
<path d="M219.435 164.762C219.361 164.887 219.336 165.111 219.236 165.161C219.137 165.211 218.962 165.061 218.813 164.987C218.888 164.862 218.912 164.638 219.012 164.588C219.112 164.538 219.286 164.688 219.435 164.762Z" fill="#664425"/>
<path d="M229.422 131.52C229.347 131.67 229.323 131.869 229.223 131.919C229.123 131.969 228.949 131.819 228.8 131.769C228.874 131.62 228.899 131.396 228.999 131.346C229.098 131.321 229.273 131.446 229.422 131.52Z" fill="#664425"/>
<path d="M306.03 190.31C305.806 190.086 305.582 189.887 305.333 189.663C305.457 189.588 305.557 189.539 305.657 189.464C305.781 189.738 305.906 190.037 306.03 190.31Z" fill="#664425"/>
<path d="M255.797 140.285C255.747 140.334 255.672 140.334 255.597 140.359C255.572 140.31 255.548 140.21 255.548 140.185C255.597 140.135 255.672 140.135 255.747 140.11C255.772 140.16 255.822 140.26 255.797 140.285Z" fill="#664425"/>
<path d="M301.746 177.91C301.697 177.959 301.597 177.959 301.547 177.984C301.522 177.935 301.472 177.835 301.497 177.81C301.547 177.76 301.622 177.76 301.697 177.735C301.722 177.81 301.746 177.91 301.746 177.91Z" fill="#664425"/>
<path d="M306.055 185.33C306.13 185.38 306.179 185.405 306.254 185.455C306.179 185.405 306.105 185.355 306.055 185.33Z" fill="#664425"/>
<path d="M101.66 280.253C101.66 280.427 101.436 280.651 101.212 280.95C101.012 280.651 100.788 280.427 100.813 280.253C100.813 280.054 101.087 279.904 101.237 279.705C101.386 279.904 101.635 280.054 101.66 280.253Z" fill="#82592E"/>
<path d="M184.618 288.744C184.693 289.267 184.319 289.541 183.871 289.715C183.323 289.64 183.174 289.267 183.199 288.794C183.223 288.42 183.273 288.047 183.722 287.997C184.245 287.947 184.543 288.296 184.618 288.744Z" fill="#A87E4D"/>
<path d="M190.073 283.887C189.874 284.037 189.724 284.236 189.5 284.36H189.475C189.376 284.435 189.301 284.435 189.251 284.41C189.251 284.41 189.251 284.41 189.226 284.41C189.201 284.36 189.201 284.261 189.276 284.136C189.276 284.111 189.301 284.111 189.301 284.086H189.326C189.326 284.062 189.326 284.037 189.351 284.012C189.375 283.962 189.425 283.912 189.475 283.862C189.525 283.738 189.625 283.638 189.699 283.514C189.799 283.638 189.899 283.713 189.973 283.812C190.023 283.837 190.048 283.862 190.073 283.887Z" fill="#A87E4D"/>
<path d="M203.347 277.239C203.272 277.712 202.873 277.712 202.525 277.762C202.575 277.414 202.575 276.99 203.048 276.94C203.122 276.94 203.347 277.165 203.347 277.239Z" fill="#A87E4D"/>
<path d="M182.85 276.617C182.85 276.691 182.626 276.916 182.551 276.916C182.103 276.841 182.078 276.442 182.053 276.094C182.402 276.144 182.776 276.144 182.85 276.617Z" fill="#A87E4D"/>
<path d="M175.404 294.346C175.254 294.146 175.13 293.997 174.98 293.798C175.055 293.748 175.13 293.698 175.204 293.648C175.254 293.897 175.329 294.122 175.404 294.346Z" fill="#A87E4D"/>
<path d="M68.7602 338.446C68.6606 338.57 68.561 338.695 68.4613 338.794C68.3866 338.695 68.287 338.62 68.2372 338.496C68.2372 338.446 68.3119 338.321 68.3617 338.321C68.4862 338.346 68.6108 338.396 68.7602 338.446Z" fill="#82592E"/>
<path d="M77.253 334.212C76.6303 334.386 77.0039 333.838 76.8794 333.664C77.0039 333.838 77.1284 334.038 77.253 334.212Z" fill="#82592E"/>
<path d="M158.593 196.635C158.443 197.208 158.244 198.03 157.298 197.158C156.476 197.258 155.504 197.432 155.43 196.411C155.43 196.262 155.43 196.062 155.479 195.838C155.479 195.813 155.504 195.764 155.504 195.739C155.729 194.718 156.6 195.415 157.123 195.34C157.97 195.241 158.916 195.34 158.593 196.635Z" fill="#664425"/>
<path d="M139.989 190.311C140.039 190.236 140.063 190.186 140.113 190.111C140.063 190.161 140.014 190.236 139.989 190.311Z" fill="#82592E"/>
<path d="M255.523 176.939C255.523 177.014 255.199 177.138 255.125 177.088C254.651 176.864 254.602 176.391 254.552 175.918C255.149 175.993 255.648 176.192 255.523 176.939Z" fill="#664425"/>
<path d="M256.469 174.15C256.519 174.25 256.419 174.523 256.32 174.548C256.195 174.598 256.046 174.449 255.896 174.399C255.946 174.249 256.021 174.1 256.071 173.976C256.22 174.025 256.444 174.05 256.469 174.15Z" fill="#664425"/>
<path d="M391.803 53.9528C391.529 53.0315 391.156 52.1849 390.732 51.3382C390.608 51.0643 390.458 50.8154 390.284 50.5414C389.512 49.1968 388.541 48.0016 387.42 46.9557C383.609 43.3451 377.931 41.353 371.057 41.3779C366.724 40.6807 362.092 42.7226 358.704 46.2834C358.331 46.6818 357.982 47.0802 357.634 47.5035C356.289 49.1968 355.218 51.164 354.52 53.2556C354.172 54.3264 353.948 55.422 353.798 56.5425C353.748 57.0903 353.699 57.6631 353.699 58.2358C353.674 60.1033 354.022 61.946 354.645 63.714C354.745 64.0128 354.869 64.2867 354.969 64.5855C355.093 64.8594 355.218 65.1582 355.342 65.457C355.616 66.0048 355.915 66.5527 356.214 67.0756C356.538 67.6234 356.886 68.1463 357.26 68.6692C357.634 69.1673 358.032 69.6653 358.43 70.1384C358.829 70.6115 359.277 71.0597 359.726 71.5079C361.095 72.8526 362.639 73.998 364.283 74.9442C364.557 75.0936 364.856 75.243 365.13 75.3924C365.703 75.6664 366.276 75.9154 366.848 76.1644C367.421 76.3885 368.019 76.5877 368.617 76.762C369.538 77.011 370.435 77.1853 371.356 77.3098C371.979 77.3596 372.601 77.4094 373.224 77.4094C374.992 77.4094 376.686 77.2102 378.28 76.8367C378.28 76.8367 378.305 76.8118 378.33 76.8118C378.927 76.6624 379.525 76.4881 380.123 76.2889C383.111 75.2679 385.726 73.5747 387.769 71.4581C387.968 71.2589 388.167 71.0348 388.366 70.8356C388.366 70.8356 388.366 70.8356 388.391 70.8107C388.765 70.3874 389.113 69.9392 389.437 69.491C389.462 69.491 389.462 69.4909 389.462 69.466C389.96 68.7688 390.433 68.0716 390.807 67.3246C390.956 67.0756 391.081 66.8265 391.181 66.5775C391.778 65.3076 392.202 63.9879 392.451 62.6432C392.501 62.3942 392.55 62.1203 392.575 61.8464C392.65 61.2986 392.7 60.7757 392.7 60.2279C392.725 57.9619 392.426 55.8702 391.803 53.9528ZM374.121 57.2895C371.057 57.3642 368.617 55.3224 368.592 52.6829C368.542 49.9936 370.46 48.1758 373.324 48.1509C376.213 48.1509 378.205 50.0683 378.28 52.9568C378.305 55.0983 376.262 57.2397 374.121 57.2895Z" fill="#2A5C93"/>
<path d="M378.28 52.9572C378.329 55.1236 376.287 57.2402 374.12 57.29C371.057 57.3647 368.641 55.3228 368.592 52.6833C368.567 49.994 370.459 48.1763 373.348 48.1514C376.212 48.1514 378.205 50.0688 378.28 52.9572Z" fill="#F4EEE3"/>
<defs>
<linearGradient id="paint0_linear_1155_105485" x1="272" y1="167" x2="415" y2="7.5" gradientUnits="userSpaceOnUse">
<stop offset="0.246587" stop-opacity="0"/>
<stop offset="1" stop-color="#211A19"/>
</linearGradient>
</defs>
</svg>
