<svg width="66" height="65" viewBox="0 0 66 65" fill="none" xmlns="http://www.w3.org/2000/svg">
<path d="M38.5086 16.5892C37.8766 16.7335 37.2799 17.0134 36.7557 17.4114C36.4176 16.4492 35.8077 15.6187 35.0077 15.0309C34.2078 14.4431 33.2559 14.1262 32.2798 14.1227C31.2352 14.1272 30.2219 14.4975 29.4001 15.1751L29.1497 14.3858C28.8699 13.3584 28.278 12.4552 27.4643 11.814C26.6505 11.1728 25.6596 10.8287 24.6425 10.8341C23.8796 10.822 23.1252 11.0041 22.4439 11.3649C21.7626 11.7257 21.1745 12.2544 20.7299 12.9059C20.4341 13.3574 20.2119 13.8576 20.0726 14.3858C19.2025 14.1043 18.2758 14.0773 17.3921 14.3078C16.5085 14.5383 15.7014 15.0175 15.0576 15.694C14.4138 16.3704 13.9577 17.2184 13.7383 18.1468C13.5189 19.0752 13.5446 20.0489 13.8125 20.9631L18.3511 36.2882C17.2604 36.136 16.151 36.2497 15.1089 36.6203C14.0667 36.991 13.1198 37.6088 12.3414 38.4258C11.9632 38.7923 11.6768 39.2511 11.5075 39.7617C11.3383 40.2722 11.2914 40.8187 11.3711 41.3527C11.4853 42.0711 11.7684 42.7482 12.1947 43.3225C12.6211 43.8968 13.1772 44.3501 13.8125 44.6414C17.3766 46.7008 20.5576 49.4192 23.2027 52.6657C24.3628 53.9802 25.7665 55.0316 27.3274 55.7555C28.8883 56.4794 30.5736 56.8604 32.2798 56.8752C33.3377 56.8752 34.3926 56.7173 35.4098 56.4148L40.9813 54.6718C42.3882 54.2345 43.6461 53.3824 44.6059 52.2166C45.5657 51.0508 46.1871 49.6202 46.3963 48.0945C47.0285 43.885 47.3509 39.6295 47.3666 35.3674C46.946 30.0867 45.8944 24.8826 44.2366 19.8779C43.8483 18.6748 43.044 17.669 41.983 17.0598C40.922 16.4507 39.6819 16.2827 38.5086 16.5892ZM43.2662 47.6998C43.1425 48.5821 42.7825 49.4092 42.2283 50.0846C41.6741 50.7601 40.9485 51.256 40.1362 51.5147L34.5334 53.2576C32.908 53.6977 31.1981 53.6539 29.5951 53.1312C27.992 52.6085 26.559 51.6275 25.4563 50.2979C22.564 46.7291 19.0604 43.7619 15.1272 41.5501C14.6889 41.3199 14.4698 40.9252 14.5011 40.7608C15.2548 40.0592 16.2116 39.6452 17.2169 39.5855C18.2222 39.5258 19.2173 39.824 20.0413 40.4319C20.3173 40.5615 20.6227 40.606 20.9219 40.5603C21.2211 40.5147 21.5017 40.3807 21.7313 40.174C21.9608 39.9673 22.1298 39.6963 22.2185 39.3927C22.3072 39.089 22.312 38.7651 22.2323 38.4587L16.8487 20.0752C16.7097 19.6145 16.731 19.117 16.9087 18.6712C17.0864 18.2255 17.409 17.8606 17.819 17.6416C18.0693 17.5205 18.3416 17.4579 18.6172 17.4579C18.8927 17.4579 19.165 17.5205 19.4153 17.6416C19.6743 17.7493 19.9086 17.9134 20.1028 18.1231C20.297 18.3329 20.4467 18.5834 20.5421 18.8584L23.86 29.4478C23.9519 29.7375 24.1268 29.9902 24.3608 30.1713C24.6599 30.4082 25.0196 30.5456 25.3937 30.566H25.8945C26.0293 30.508 26.1557 30.4305 26.2701 30.3358C26.428 30.2771 26.573 30.1857 26.6967 30.0671C26.8203 29.9485 26.9201 29.805 26.99 29.6451C27.0153 29.4597 27.0153 29.2715 26.99 29.0861C27.0216 28.8791 27.0216 28.6682 26.99 28.4612L23.1088 16.3261C23.0356 16.0727 23.0174 15.8054 23.0553 15.5437C23.0932 15.2819 23.1863 15.0324 23.3279 14.8133C23.517 14.5824 23.7594 14.4065 24.0319 14.3026C24.3044 14.1986 24.5978 14.17 24.8839 14.2195C25.17 14.269 25.4391 14.3951 25.6654 14.5854C25.8917 14.7758 26.0676 15.0242 26.1762 15.3066L30.1201 29.382C30.2104 29.6992 30.3974 29.9765 30.6522 30.1713C30.914 30.4311 31.2624 30.5728 31.6225 30.566H32.0607C32.2763 30.5211 32.4805 30.429 32.6599 30.2958C32.8394 30.1625 32.9902 29.991 33.1024 29.7924C33.2146 29.5939 33.2857 29.3727 33.3112 29.1434C33.3366 28.914 33.3158 28.6816 33.2501 28.4612L30.7461 19.6805C30.6675 19.4206 30.6492 19.1447 30.6927 18.8758C30.7363 18.6069 30.8404 18.3529 30.9965 18.1349C31.1827 17.834 31.4499 17.5981 31.7642 17.4572C32.0784 17.3164 32.4254 17.277 32.761 17.344C33.0966 17.411 33.4057 17.5814 33.6488 17.8335C33.892 18.0856 34.0583 18.408 34.1265 18.7597L35.1281 22.8705L36.6305 29.4478C36.729 29.8229 36.9508 30.1492 37.2566 30.3686C37.3922 30.4575 37.54 30.5241 37.6948 30.566H38.3208C38.5272 30.5158 38.722 30.423 38.8939 30.2929C39.0658 30.1628 39.2114 29.9981 39.3221 29.8083C39.4328 29.6186 39.5065 29.4075 39.5387 29.1875C39.571 28.9675 39.5613 28.743 39.5102 28.527L37.9765 21.9497C37.8626 21.4614 37.9369 20.9456 38.183 20.5145C38.4292 20.0834 38.8274 19.7719 39.2911 19.6476C39.7143 19.5243 40.1667 19.5789 40.5523 19.7999C40.9379 20.0208 41.2265 20.3909 41.3569 20.8316C42.8719 25.5475 43.839 30.441 44.2366 35.4003C44.2069 39.5199 43.8825 43.6313 43.2662 47.6998ZM51.4044 11.1629C51.2399 11.0334 51.0528 10.9391 50.8537 10.8855C50.6547 10.8319 50.4475 10.8201 50.244 10.8506C50.0406 10.8811 49.8448 10.9535 49.668 11.0635C49.4911 11.1735 49.3366 11.319 49.2133 11.4918C49.09 11.6645 49.0003 11.8611 48.9493 12.0703C48.8983 12.2795 48.887 12.4972 48.916 12.7109C48.9451 12.9247 49.014 13.1304 49.1187 13.3162C49.2234 13.502 49.3619 13.6643 49.5263 13.7938C51.517 15.5364 52.9718 17.8595 53.7071 20.4699C54.4424 23.0803 54.4253 25.861 53.658 28.4612C53.5418 28.8799 53.5886 29.3299 53.7882 29.7123C53.9878 30.0947 54.3237 30.3781 54.7222 30.5002L55.1604 30.566C55.5003 30.5715 55.8323 30.4582 56.1042 30.2439C56.3762 30.0296 56.5727 29.7264 56.6628 29.382C57.6079 26.1399 57.6125 22.6755 56.6759 19.4306C55.7394 16.1857 53.9042 13.3075 51.4044 11.1629ZM47.6921 15.7999C47.8903 15.8491 48.0774 15.9385 48.243 16.063C49.5648 17.2398 50.5903 18.7405 51.229 20.4325C51.8677 22.1245 52.1 23.9558 51.9052 25.7645C51.8736 26.1774 51.6949 26.5626 51.4048 26.8431C51.1146 27.1236 50.7344 27.2786 50.3401 27.2773C50.1344 27.2607 49.9338 27.2015 49.7499 27.1031C49.566 27.0048 49.4024 26.8692 49.2686 26.7041C49.1348 26.539 49.0333 26.3478 48.9701 26.1414C48.9069 25.935 48.8832 25.7175 48.9003 25.5014C49.0381 24.2435 48.8821 22.9691 48.4458 21.7887C48.0095 20.6083 47.3061 19.5574 46.3963 18.7268C46.2329 18.6003 46.095 18.4409 45.9907 18.2579C45.8864 18.0749 45.8177 17.872 45.7886 17.6609C45.7595 17.4499 45.7705 17.2348 45.8211 17.0283C45.8717 16.8217 45.9608 16.6278 46.0833 16.4577C46.2576 16.191 46.5043 15.9857 46.7913 15.8684C47.0782 15.7511 47.3921 15.7272 47.6921 15.7999Z" fill="#4A4A4A"/>
</svg>
